<svg width="22" height="24" viewBox="0 0 22 24" fill="none" xmlns="http://www.w3.org/2000/svg">
<path d="M21 4H16V2C16 0.9 15.1 0 14 0H8C6.9 0 6 0.9 6 2V4H1C0.45 4 0 4.45 0 5C0 5.55 0.45 6 1 6H2V22C2 23.1 2.9 24 4 24H18C19.1 24 20 23.1 20 22V6H21C21.55 6 22 5.55 22 5C22 4.45 21.55 4 21 4ZM8 2H14V4H8V2ZM18 22H4V6H18V22Z" fill="#808080"/>
<path d="M9 9C8.45 9 8 9.45 8 10V18C8 18.55 8.45 19 9 19C9.55 19 10 18.55 10 18V10C10 9.45 9.55 9 9 9Z" fill="#808080"/>
<path d="M13 9C12.45 9 12 9.45 12 10V18C12 18.55 12.45 19 13 19C13.55 19 14 18.55 14 18V10C14 9.45 13.55 9 13 9Z" fill="#808080"/>
</svg>
