<svg width="18" height="20" viewBox="0 0 18 20" fill="none" xmlns="http://www.w3.org/2000/svg">
<path d="M8 1C8 0.447716 8.44772 0 9 0C9.55228 0 10 0.447715 10 1V19C10 19.5523 9.55228 20 9 20C8.44772 20 8 19.5523 8 19V1Z" fill="#151528"/>
<path d="M16 5C16 4.44772 16.4477 4 17 4C17.5523 4 18 4.44772 18 5V19C18 19.5523 17.5523 20 17 20C16.4477 20 16 19.5523 16 19V5Z" fill="#151528"/>
<path d="M0 11C0 10.4477 0.447715 10 1 10C1.55228 10 2 10.4477 2 11V19C2 19.5523 1.55228 20 1 20C0.447715 20 0 19.5523 0 19V11Z" fill="#151528"/>
</svg>
