<svg width="24" height="24" viewBox="0 0 24 24" fill="none" xmlns="http://www.w3.org/2000/svg">
<path d="M12 0C9.62663 0 7.30655 0.703785 5.33316 2.02236C3.35977 3.34094 1.8217 5.21509 0.913451 7.4078C0.00519943 9.60051 -0.232441 12.0133 0.230582 14.3411C0.693605 16.6689 1.83649 18.8071 3.51472 20.4853C5.19295 22.1635 7.33114 23.3064 9.65891 23.7694C11.9867 24.2324 14.3995 23.9948 16.5922 23.0866C18.7849 22.1783 20.6591 20.6402 21.9776 18.6668C23.2962 16.6934 24 14.3734 24 12C24 8.8174 22.7357 5.76515 20.4853 3.51472C18.2348 1.26428 15.1826 0 12 0ZM15.24 8.08C15.24 8.14461 15.2151 8.20673 15.1704 8.25333C15.1256 8.29994 15.0646 8.32742 15 8.33H13.95C13.22 8.33 13.09 8.61 13.09 9.16V10.32H14.92C14.9532 10.3186 14.9864 10.324 15.0174 10.3361C15.0483 10.3481 15.0765 10.3665 15.1 10.39C15.1433 10.4362 15.1682 10.4967 15.17 10.56V12.56C15.17 12.6263 15.1437 12.6899 15.0968 12.7368C15.0499 12.7837 14.9863 12.81 14.92 12.81H13.09V17.81C13.09 17.8736 13.0647 17.9347 13.0197 17.9797C12.9747 18.0247 12.9136 18.05 12.85 18.05H10.85C10.7854 18.05 10.7233 18.0251 10.6767 17.9803C10.6301 17.9356 10.6026 17.8746 10.6 17.81V12.81H9.04C8.9737 12.81 8.91011 12.7837 8.86323 12.7368C8.81634 12.6899 8.79 12.6263 8.79 12.56V10.56C8.79258 10.4954 8.82007 10.4344 8.86668 10.3896C8.91328 10.3449 8.97539 10.3199 9.04 10.32H10.6V8.96C10.5619 8.56685 10.6093 8.17012 10.7388 7.79698C10.8684 7.42385 11.0771 7.08314 11.3506 6.7982C11.6242 6.51326 11.9561 6.29083 12.3236 6.14616C12.6912 6.00148 13.0856 5.93798 13.48 5.96H15.04C15.1046 5.96258 15.1656 5.99006 15.2103 6.03667C15.2551 6.08327 15.2801 6.14539 15.28 6.21L15.24 8.08Z" fill="#808080"/>
</svg>
