<svg width="24" height="24" viewBox="0 0 24 24" fill="none" xmlns="http://www.w3.org/2000/svg">
<path d="M14.2969 12C14.2969 12.4543 14.1622 12.8984 13.9098 13.2761C13.6574 13.6538 13.2987 13.9482 12.879 14.122C12.4593 14.2959 11.9975 14.3414 11.5519 14.2527C11.1064 14.1641 10.6971 13.9454 10.3759 13.6241C10.0546 13.3029 9.83588 12.8936 9.74726 12.4481C9.65863 12.0025 9.70412 11.5407 9.87796 11.121C10.0518 10.7013 10.3462 10.3426 10.7239 10.0902C11.1016 9.83783 11.5457 9.70312 12 9.70312C12.6092 9.70312 13.1934 9.94512 13.6241 10.3759C14.0549 10.8066 14.2969 11.3908 14.2969 12Z" fill="#808080"/>
<path d="M17.3714 7.93595C17.2569 7.6388 17.0814 7.36893 16.8563 7.14376C16.6311 6.91858 16.3612 6.74309 16.0641 6.62861C15.8213 6.53486 15.4547 6.42189 14.7844 6.39142C14.0578 6.35814 13.8398 6.35111 12 6.35111C10.1602 6.35111 9.94219 6.35814 9.21563 6.39095C8.54391 6.42189 8.17875 6.53158 7.93594 6.62861C7.63878 6.74319 7.36891 6.91871 7.14367 7.14387C6.91843 7.36903 6.74281 7.63884 6.62813 7.93595C6.53438 8.17877 6.42188 8.54533 6.39094 9.21564C6.35813 9.94221 6.35063 10.1602 6.35063 12C6.35063 13.8399 6.35813 14.0578 6.39094 14.7849C6.42188 15.4566 6.53156 15.8213 6.62813 16.0641C6.74289 16.3612 6.91852 16.6311 7.14374 16.8563C7.36897 17.0815 7.63881 17.2571 7.93594 17.3719C8.17875 17.4657 8.54531 17.5786 9.21563 17.6091C9.94219 17.6424 10.1597 17.6494 12 17.6494C13.8403 17.6494 14.0578 17.6424 14.7844 17.6091C15.4561 17.5786 15.8213 17.4661 16.0641 17.3719C16.3612 17.2572 16.631 17.0816 16.8562 16.8564C17.0813 16.6311 17.2568 16.3613 17.3714 16.0641C17.4652 15.8213 17.5781 15.4547 17.6091 14.7849C17.6419 14.0578 17.6489 13.8399 17.6489 12C17.6489 10.1602 17.6419 9.94221 17.6091 9.21564C17.5781 8.54392 17.4661 8.17877 17.3714 7.93595ZM12 15.5382C11.3002 15.5382 10.6162 15.3306 10.0343 14.9419C9.45248 14.5531 8.99899 14.0005 8.7312 13.354C8.46341 12.7075 8.39334 11.9961 8.52986 11.3098C8.66638 10.6234 9.00335 9.993 9.49817 9.49819C9.99298 9.00337 10.6234 8.6664 11.3097 8.52988C11.9961 8.39336 12.7075 8.46342 13.354 8.73122C14.0005 8.99901 14.5531 9.4525 14.9418 10.0343C15.3306 10.6162 15.5381 11.3002 15.5381 12C15.5381 12.4647 15.4466 12.9247 15.2688 13.354C15.091 13.7833 14.8304 14.1733 14.5018 14.5019C14.1733 14.8304 13.7832 15.091 13.354 15.2688C12.9247 15.4466 12.4646 15.5382 12 15.5382ZM15.6783 9.14861C15.5147 9.14861 15.3549 9.10012 15.2189 9.00926C15.0829 8.9184 14.9769 8.78926 14.9143 8.63817C14.8518 8.48708 14.8354 8.32082 14.8673 8.16042C14.8992 8.00002 14.978 7.85269 15.0936 7.73705C15.2092 7.62141 15.3566 7.54265 15.517 7.51075C15.6774 7.47884 15.8436 7.49522 15.9947 7.5578C16.1458 7.62039 16.2749 7.72637 16.3658 7.86235C16.4567 7.99833 16.5052 8.15819 16.5052 8.32174C16.5052 8.54104 16.418 8.75136 16.263 8.90642C16.1079 9.06149 15.8976 9.14861 15.6783 9.14861Z" fill="#808080"/>
<path d="M12 0C5.37375 0 0 5.37375 0 12C0 18.6263 5.37375 24 12 24C18.6263 24 24 18.6263 24 12C24 5.37375 18.6263 0 12 0ZM18.8489 14.8411C18.8156 15.5742 18.6989 16.0753 18.5287 16.5136C18.3518 16.9715 18.081 17.3873 17.7339 17.7344C17.3868 18.0815 16.971 18.3522 16.5131 18.5292C16.0748 18.6994 15.5756 18.8161 14.8406 18.8494C14.1056 18.8827 13.8717 18.8906 12 18.8906C10.1283 18.8906 9.89391 18.8827 9.15891 18.8489C8.42391 18.8152 7.92469 18.6989 7.48641 18.5287C7.02869 18.3515 6.61299 18.0807 6.26592 17.7336C5.91884 17.3865 5.64802 16.9708 5.47078 16.5131C5.30062 16.0748 5.18391 15.5756 5.15062 14.8406C5.11734 14.1056 5.10938 13.8713 5.10938 12C5.10938 10.1287 5.11734 9.89391 5.15109 9.15891C5.18484 8.42391 5.30062 7.92469 5.47078 7.48641C5.64815 7.02876 5.91901 6.61313 6.26607 6.26607C6.61313 5.91901 7.02876 5.64815 7.48641 5.47078C7.92469 5.30062 8.42391 5.18391 9.15891 5.15062C9.89391 5.11734 10.1287 5.10938 12 5.10938C13.8713 5.10938 14.1061 5.11734 14.8411 5.15109C15.5761 5.18484 16.0753 5.30109 16.5136 5.47078C16.9713 5.64797 17.3871 5.91877 17.7341 6.26586C18.0812 6.61294 18.352 7.02866 18.5292 7.48641C18.6998 7.92469 18.8161 8.42391 18.8498 9.15891C18.8836 9.89391 18.8906 10.1287 18.8906 12C18.8906 13.8713 18.8827 14.1061 18.8489 14.8411Z" fill="#808080"/>
</svg>
