<svg width="16" height="16" viewBox="0 0 16 16" fill="none" xmlns="http://www.w3.org/2000/svg">
<path d="M15.4531 11.6365L13.4506 9.63808C13.3059 9.47634 13.1299 9.34543 12.9333 9.2532C12.7367 9.16097 12.5234 9.10933 12.3063 9.10136C12.0894 9.11061 11.8766 9.16282 11.6801 9.25496C11.4837 9.34711 11.3075 9.47735 11.162 9.63808L10.0177 10.78L9.68587 10.6087C9.56012 10.5512 9.43786 10.4864 9.31971 10.4146C8.1739 9.66614 7.15426 8.7411 6.2988 7.67392C5.89447 7.17676 5.55247 6.63222 5.28038 6.05235C5.58934 5.76686 5.88685 5.46994 6.17292 5.18446L6.48189 4.86471C6.80639 4.56951 7.00332 4.16007 7.03114 3.72276C7.02349 3.4966 6.97101 3.27419 6.87673 3.06839C6.78246 2.86258 6.64826 2.67745 6.48189 2.52371L5.48635 1.53021L5.14308 1.18762C4.92566 0.959232 4.69679 0.730846 4.46793 0.513875C4.1679 0.200708 3.7575 0.0164047 3.32365 0C2.8917 0.024313 2.48407 0.20737 2.17937 0.513875L0.771902 1.7586C0.325408 2.19612 0.0530203 2.78036 0.00523374 3.40301C-0.0318186 4.31327 0.128206 5.22081 0.474394 6.06376C1.1292 7.73306 2.06581 9.27802 3.24356 10.6316C4.80901 12.5021 6.76059 14.0135 8.96498 15.0624C9.95319 15.5705 11.0285 15.8882 12.1346 15.9987H12.3635C12.7469 16.0106 13.1282 15.938 13.4803 15.786C13.8323 15.634 14.1465 15.4064 14.4003 15.1194C14.6028 14.8809 14.8207 14.6559 15.0526 14.4457L15.5217 13.9889C15.6789 13.8336 15.8024 13.6478 15.8845 13.4429C15.9667 13.238 16.0058 13.0184 15.9993 12.7978C15.9929 12.5772 15.9411 12.3603 15.8471 12.1605C15.7531 11.9607 15.619 11.7824 15.4531 11.6365ZM14.6292 13.2352C14.493 13.3883 14.3477 13.5332 14.1943 13.6692C13.9083 13.9547 13.6794 14.183 13.4735 14.4228C13.3296 14.5824 13.1528 14.7089 12.9553 14.7936C12.7577 14.8784 12.5441 14.9194 12.3292 14.9139H12.1575C11.2 14.8069 10.2697 14.5284 9.41125 14.0917C7.36489 13.1094 5.55115 11.7042 4.09032 9.96924C2.99164 8.70657 2.12404 7.26091 1.52713 5.69833C1.2378 5.01256 1.10115 4.27227 1.12663 3.52863C1.1533 3.1776 1.30801 2.84851 1.56146 2.60365L2.80873 1.35893C2.90615 1.25154 3.04152 1.18604 3.18634 1.17621C3.18634 1.17621 3.35798 1.17621 3.5525 1.37034C3.74703 1.56447 3.99878 1.80428 4.20475 2.00983L4.55948 2.37526L5.555 3.36876C5.6725 3.46738 5.74983 3.60546 5.77242 3.75702C5.74883 3.90823 5.67169 4.04598 5.555 4.14528L5.2346 4.46502C4.97142 4.73909 4.69679 5.01317 4.39928 5.27581L3.79281 5.82395L4.11321 6.57764C4.41084 7.25274 4.79552 7.88616 5.25749 8.46185C6.18381 9.63309 7.29726 10.644 8.55304 11.4538C8.70298 11.549 8.8598 11.633 9.0222 11.705L9.28538 11.8535L10.052 12.2874L11.8715 10.4831C11.9644 10.3724 12.0946 10.2994 12.2376 10.2776C12.3067 10.285 12.3735 10.3059 12.4344 10.3393C12.4953 10.3726 12.549 10.4176 12.5924 10.4717L14.6063 12.4815C14.8466 12.6414 14.9839 12.8812 14.6292 13.2352Z" fill="#151528"/>
</svg>
