<svg width="52" height="64" viewBox="0 0 52 64" fill="none" xmlns="http://www.w3.org/2000/svg">
<path d="M52 10.5242C51.9868 10.3734 51.9435 10.2269 51.8726 10.0929C51.8018 9.95903 51.7049 9.84046 51.5875 9.74416C51.4714 9.64607 51.337 9.57172 51.192 9.52539C51.0469 9.47906 50.8941 9.46166 50.7423 9.47417C40.6803 10.3142 32.8522 7.34416 26.8855 0.384155C26.7724 0.26299 26.6355 0.166339 26.4831 0.100235C26.3307 0.0341311 26.1663 0 26 0C25.8338 0 25.6693 0.0341311 25.5169 0.100235C25.3646 0.166339 25.2276 0.26299 25.1146 0.384155C19.0271 7.45416 11.2291 10.4342 1.27787 9.48416C1.11608 9.46729 0.952548 9.48451 0.797911 9.5347C0.643274 9.58489 0.501024 9.66692 0.380441 9.77544C0.259857 9.88395 0.163644 10.0165 0.0980939 10.1645C0.0325439 10.3125 -0.000871056 10.4725 1.72574e-05 10.6342V29.7842C1.72574e-05 43.7842 9.53871 56.5042 25.507 63.8942C25.6618 63.9647 25.8297 64.0022 26 64.0042C26.1673 64.0046 26.3326 63.967 26.483 63.8942C33.8164 60.6337 40.2325 55.6341 45.1679 49.3342C45.3793 49.0442 45.6006 48.7542 45.7817 48.4842C47.2419 46.4311 48.4765 44.2286 49.4644 41.9142C49.8529 41.0039 50.1889 40.0724 50.4706 39.1242C51.1637 36.9833 51.6192 34.7734 51.829 32.5341C51.9195 31.6241 51.9597 30.7042 51.9597 29.7842V10.5242H52ZM49.6757 11.8442V29.7842C49.6757 30.6242 49.6757 31.4742 49.555 32.3042C49.3632 34.3839 48.9414 36.4363 48.2972 38.4242C48.0155 39.2942 47.6935 40.1642 47.291 41.0042C46.3612 43.1792 45.1973 45.248 43.8197 47.1742C43.6385 47.4442 43.4474 47.7042 43.2462 47.9642C38.6772 53.8056 32.7623 58.47 26 61.5641C11.1788 54.5641 2.32432 42.6642 2.32432 29.7742V11.8742C12.0341 12.5042 19.7817 9.55416 26 2.87416C32.1076 9.45416 39.8553 12.3942 49.6757 11.8642V11.8442Z" fill="#151528"/>
<path d="M45.4195 14.9842C38.7271 14.7248 32.2975 12.3259 27.0867 8.14417L26.9156 8.01416L26.7647 7.89417C26.5511 7.72204 26.2851 7.62687 26.0101 7.62416C25.7348 7.62526 25.4683 7.72062 25.2554 7.89417L25.1045 8.01416L24.9335 8.14417C19.7143 12.3249 13.2788 14.7234 6.5805 14.9842C6.27536 15.0047 5.99025 15.1425 5.78554 15.3684C5.58084 15.5942 5.4726 15.8904 5.48376 16.1942V29.7642C5.48376 36.3242 8.13004 42.7642 13.1409 48.3742C13.1715 48.4484 13.2159 48.5162 13.2717 48.5742C13.8352 49.1842 14.4489 49.8042 15.2036 50.5142L15.4048 50.7042C15.9683 51.2342 16.5217 51.7042 17.0751 52.1942C19.6427 54.3725 22.4553 56.2483 25.4567 57.7841C25.6254 57.8681 25.8113 57.9126 26 57.9142C26.1886 57.9115 26.3742 57.8671 26.5434 57.7841C29.5489 56.2461 32.3649 54.3669 34.935 52.1842C35.4783 51.7242 36.0217 51.2442 36.5952 50.7042L36.7965 50.5142C37.5511 49.7942 38.1649 49.1842 38.7485 48.5142C38.7896 48.4677 38.8205 48.4132 38.839 48.3542C43.87 42.7342 46.5163 36.2942 46.5163 29.7342V16.1542C46.5219 15.8558 46.4106 15.567 46.206 15.3487C46.0013 15.1304 45.7193 14.9997 45.4195 14.9842ZM44.1919 17.2842V29.7642C44.1919 35.8742 41.7368 41.7642 37.1486 46.9342L37.0379 47.0242C35.3569 48.8577 33.5076 50.5317 31.514 52.0242C29.7739 53.3045 27.9447 54.4607 26.0403 55.4842C24.1381 54.4605 22.3092 53.3078 20.5666 52.0341C18.5778 50.5359 16.729 48.8624 15.0426 47.0341C15.0152 46.998 14.981 46.9674 14.942 46.9442C10.2934 41.8142 7.84832 35.8742 7.84832 29.7642V17.2942C14.4889 16.8603 20.837 14.4176 26.0403 10.2942C31.2318 14.4112 37.565 16.8535 44.1919 17.2942V17.2842Z" fill="#151528"/>
</svg>
