<svg width="40" height="40" viewBox="0 0 40 40" fill="none" xmlns="http://www.w3.org/2000/svg">
<path d="M37.5 2C37.8 2 38 2.2 38 2.5V37.5C38 37.8 37.8 38 37.5 38H2.5C2.2 38 2 37.8 2 37.5V2.5C2 2.2 2.2 2 2.5 2H37.5ZM37.5 0H2.5C1.1 0 0 1.1 0 2.5V37.5C0 38.9 1.1 40 2.5 40H37.5C38.9 40 40 38.9 40 37.5V2.5C40 1.1 38.9 0 37.5 0Z" fill="#151528"/>
<path d="M34.6 4C33.9 4 33.3 4.6 33.3 5.3C33.3 6 33.9 6.6 34.6 6.6C35.3 6.6 35.9 6 35.9 5.3C35.9 4.6 35.3 4 34.6 4Z" fill="#151528"/>
<path d="M34.6 8.4C33.9 8.4 33.3 9 33.3 9.7C33.3 10.4 33.9 11 34.6 11C35.3 11 35.9 10.4 35.9 9.7C35.9 9 35.3 8.4 34.6 8.4Z" fill="#151528"/>
<path d="M30.7 12.3V10.3H30V10C30 9.2 29.4 8.6 28.6 8.6H28.4V7.9H26.4V8.6H25.7V7.9H23.7V8.6H23V7.9H21V8.6H20.8C20 8.6 19.4 9.2 19.4 10V10.3H18.7V12.3H19.4V13H18.7V15H19.4V15.7H18.7V17.7H19.4V17.9C19.4 18.7 20 19.3 20.8 19.3H21V20.1H23V19.3H23.7V20.1H25.7V19.3H26.4V20.1H28.4V19.3H28.6C29.4 19.3 30 18.7 30 17.9V17.7H30.7V15.7H30V15H30.7V13H30V12.3H30.7ZM28 17.2H21.4V10.6H28V17.2Z" fill="#151528"/>
<path d="M10 29.2V33.1H6.1V29.2H10ZM10.7 27.2H5.6C4.8 27.2 4.2 27.8 4.2 28.6V33.7C4.2 34.5 4.8 35.1 5.6 35.1H10.7C11.5 35.1 12.1 34.5 12.1 33.7V28.6C12 27.9 11.4 27.2 10.7 27.2Z" fill="#151528"/>
<path d="M7.6 5.9H5.6V24.6H7.6V5.9Z" fill="#151528"/>
<path d="M10.6 5.9H8.6V24.6H10.6V5.9Z" fill="#151528"/>
<path d="M30 24.2H19.4V26.2H30V24.2Z" fill="#151528"/>
<path d="M30 27H19.4V29H30V27Z" fill="#151528"/>
<path d="M30 29.8H19.4V31.8H30V29.8Z" fill="#151528"/>
</svg>
