<svg width="40" height="40" viewBox="0 0 40 40" fill="none" xmlns="http://www.w3.org/2000/svg">
<path d="M37.5 0H2.5C1.1 0 0 1.1 0 2.5V37.5C0 38.9 1.1 40 2.5 40H37.5C38.9 40 40 38.9 40 37.5V2.5C40 1.1 38.9 0 37.5 0ZM2 2.5C2 2.2 2.2 2 2.5 2H11.3C7.3 4 4 7.3 2 11.3V2.5ZM20 2C29.9 2 38 10.1 38 20C38 29.9 29.9 38 20 38C10.1 38 2 29.9 2 20C2 10.1 10.1 2 20 2ZM2.5 38C2.2 38 2 37.8 2 37.5V28.7C4 32.8 7.3 36.1 11.3 38H2.5ZM38 37.5C38 37.8 37.8 38 37.5 38H28.7C32.8 36 36.1 32.7 38 28.7V37.5ZM28.7 2H37.5C37.8 2 38 2.2 38 2.5V11.3C36 7.3 32.7 4 28.7 2Z" fill="#151528"/>
<path d="M35.9 5.3C36.618 5.3 37.2 4.71797 37.2 4C37.2 3.28203 36.618 2.7 35.9 2.7C35.182 2.7 34.6 3.28203 34.6 4C34.6 4.71797 35.182 5.3 35.9 5.3Z" fill="#151528"/>
<path d="M4.1 5.3C4.81797 5.3 5.4 4.71797 5.4 4C5.4 3.28203 4.81797 2.7 4.1 2.7C3.38203 2.7 2.8 3.28203 2.8 4C2.8 4.71797 3.38203 5.3 4.1 5.3Z" fill="#151528"/>
<path d="M35.9 37.3C36.6 37.3 37.2 36.7 37.2 36C37.2 35.3 36.6 34.7 35.9 34.7C35.2 34.7 34.6 35.3 34.6 36C34.6 36.7 35.2 37.3 35.9 37.3Z" fill="#151528"/>
<path d="M4.1 34.6C3.4 34.6 2.8 35.2 2.8 35.9C2.8 36.6 3.4 37.2 4.1 37.2C4.8 37.2 5.4 36.6 5.4 35.9C5.4 35.2 4.8 34.6 4.1 34.6Z" fill="#151528"/>
<path d="M4.6 16.4L4 16.7V23.3L5.6 22.2C5.8 22.1 8.8 20.1 12.6 21.2C8.3 23.1 6.6 28 6.6 28.2L6.4 29L11.1 33.7L11.5 31.8C11.5 31.6 12.3 28 15.8 26.2C14.1 30.6 16.4 35.2 16.5 35.4L16.8 35.9H23.5L22.4 34.3C22.4 34.3 20.3 31.2 21.5 27.3C23.4 31.6 28.3 33.2 28.5 33.3L29.1 33.5L33.8 28.8L31.9 28.4C31.7 28.4 28.1 27.6 26.3 24.1C27.5 24.6 28.7 24.7 29.8 24.7C32.9 24.7 35.4 23.4 35.5 23.3L36 23V16.3L34.4 17.4C34.4 17.4 31.3 19.5 27.4 18.3C31.7 16.4 33.3 11.5 33.4 11.3L33.6 10.7L28.9 6L28.5 7.9C28.5 8.1 27.7 11.7 24.2 13.5C25.9 9.1 23.6 4.5 23.5 4.3L23.3 4H16.6L17.7 5.6C17.7 5.6 19.8 8.7 18.6 12.6C16.7 8.3 11.8 6.7 11.6 6.6L11 6.4L6.3 11.1L8.2 11.5C8.4 11.5 12 12.3 13.8 15.8C9.4 14 4.8 16.3 4.6 16.4ZM20 16.4C22 16.4 23.6 18 23.6 20C23.6 22 22 23.6 20 23.6C18 23.6 16.4 22 16.4 20C16.4 18 18 16.4 20 16.4ZM10 29.8L8.7 28.5C9.3 27.1 11.2 23.4 15.1 22.7C15.3 23.2 15.6 23.6 16 23.9C12.4 25.2 10.8 28 10 29.8ZM18 34C17.4 32.6 16.2 28.6 18.4 25.4C18.9 25.5 19.4 25.6 19.9 25.6C18.4 29 19.1 32.2 19.9 33.9L18 34ZM29.8 30L28.5 31.3C27.1 30.7 23.4 28.8 22.7 24.9C23.2 24.7 23.6 24.4 23.9 24C25.2 27.6 28 29.2 29.8 30ZM34 20.2V22C32.6 22.6 28.6 23.8 25.4 21.6C25.5 21.1 25.6 20.6 25.6 20.1C29 21.7 32.2 20.9 34 20.2ZM30 10.2L31.3 11.5C30.7 12.9 28.8 16.6 24.9 17.3C24.7 16.8 24.4 16.4 24 16.1C27.6 14.8 29.2 12 30 10.2ZM22 6C22.6 7.4 23.8 11.4 21.6 14.6C21.1 14.5 20.6 14.4 20.1 14.4C21.6 11 20.9 7.8 20.1 6.1H22V6ZM10.2 10L11.5 8.7C12.9 9.3 16.6 11.2 17.3 15.1C16.8 15.3 16.4 15.6 16.1 16C14.8 12.4 12 10.8 10.2 10ZM14.6 18.4C14.5 18.9 14.4 19.4 14.4 19.9C11 18.4 7.8 19.1 6.1 19.9V18C7.5 17.4 11.4 16.1 14.6 18.4Z" fill="#151528"/>
</svg>
