<svg width="40" height="40" viewBox="0 0 40 40" fill="none" xmlns="http://www.w3.org/2000/svg">
<path d="M26.16 11.33H13.83C12.45 11.33 11.33 12.45 11.33 13.83V26.16C11.33 27.54 12.45 28.66 13.83 28.66H26.16C27.54 28.66 28.66 27.54 28.66 26.16V13.83C28.66 12.45 27.54 11.33 26.16 11.33ZM26.66 26.16C26.66 26.44 26.43 26.66 26.16 26.66H13.83C13.55 26.66 13.33 26.43 13.33 26.16V13.83C13.33 13.55 13.56 13.33 13.83 13.33H26.16C26.44 13.33 26.66 13.56 26.66 13.83V26.16Z" fill="#151528"/>
<path d="M40 8.25V6.25H37.77C37.67 4.07 35.93 2.33 33.75 2.23V0H31.75V2.21H30.11V0H28.11V2.21H26.47V0H24.47V2.21H22.83V0H20.83V2.21H19.19V0H17.19V2.21H15.55V0H13.55V2.21H11.91V0H9.91V2.21H8.27V0H6.27V2.23C4.09 2.33 2.35 4.07 2.25 6.25H0V8.25H2.21V9.89H0V11.89H2.21V13.53H0V15.53H2.21V17.17H0V19.17H2.21V20.81H0V22.81H2.21V24.45H0V26.45H2.21V28.09H0V30.09H2.21V31.73H0V33.73H2.23C2.33 35.91 4.07 37.65 6.25 37.75V39.98H8.25V37.77H9.89V39.98H11.89V37.77H13.53V39.98H15.53V37.77H17.17V39.98H19.17V37.77H20.81V39.98H22.81V37.77H24.45V39.98H26.45V37.77H28.09V39.98H30.09V37.77H31.73V39.98H33.73V37.75C35.91 37.65 37.65 35.91 37.75 33.73H39.98V31.73H37.77V30.09H39.98V28.09H37.77V26.45H39.98V24.45H37.77V22.81H39.98V20.81H37.77V19.17H39.98V17.17H37.77V15.53H39.98V13.53H37.77V11.89H39.98V9.89H37.77V8.25H40ZM35.79 33.56C35.79 34.79 34.79 35.79 33.56 35.79H6.44C5.21 35.79 4.21 34.79 4.21 33.56V6.44C4.21 5.21 5.21 4.21 6.44 4.21H33.56C34.79 4.21 35.79 5.21 35.79 6.44V33.56Z" fill="#151528"/>
</svg>
