<svg width="40" height="22" viewBox="0 0 40 22" fill="none" xmlns="http://www.w3.org/2000/svg">
<path d="M37.5 0H2.5C1.1 0 0 1.1 0 2.5V15C0 16.4 1.1 17.5 2.5 17.5H3V18.7C3 20.1 4.1 21.2 5.5 21.2H34.7C36.1 21.2 37.2 20.1 37.2 18.7V17.5H37.5C38.9 17.5 40 16.4 40 15V2.5C40 1.2 38.9 0 37.5 0ZM35.2 18.7C35.2 19 35 19.2 34.7 19.2H5.5C5.2 19.2 5 19 5 18.7V17.5H35.2V18.7ZM38 15C38 15.3 37.8 15.5 37.5 15.5H2.5C2.2 15.5 2 15.3 2 15V2.5C2 2.2 2.2 2 2.5 2H37.5C37.8 2 38 2.2 38 2.5V15Z" fill="#151528"/>
<path d="M9.5 4.7H6.5C5.8 4.7 5.2 5.3 5.2 6V11.5C5.2 12.2 5.8 12.8 6.5 12.8H9.5C10.2 12.8 10.8 12.2 10.8 11.5V6C10.8 5.3 10.2 4.7 9.5 4.7ZM8.8 10.8H7.10001V6.6H8.8V10.8Z" fill="#151528"/>
<path d="M17.5 4.7H14.5C13.8 4.7 13.2 5.3 13.2 6V11.5C13.2 12.2 13.8 12.8 14.5 12.8H17.5C18.2 12.8 18.8 12.2 18.8 11.5V6C18.8 5.3 18.2 4.7 17.5 4.7ZM16.8 10.8H15.1V6.6H16.8V10.8Z" fill="#151528"/>
<path d="M25.5 4.7H22.5C21.8 4.7 21.2 5.3 21.2 6V11.5C21.2 12.2 21.8 12.8 22.5 12.8H25.5C26.2 12.8 26.8 12.2 26.8 11.5V6C26.9 5.3 26.3 4.7 25.5 4.7ZM24.9 10.8H23.2V6.6H24.9V10.8Z" fill="#151528"/>
<path d="M33.6 4.7H30.6C29.9 4.7 29.3 5.3 29.3 6V11.5C29.3 12.2 29.9 12.8 30.6 12.8H33.6C34.3 12.8 34.9 12.2 34.9 11.5V6C34.9 5.3 34.3 4.7 33.6 4.7ZM32.9 10.8H31.2V6.6H32.9V10.8Z" fill="#151528"/>
</svg>
