<svg width="40" height="27" viewBox="0 0 40 27" fill="none" xmlns="http://www.w3.org/2000/svg">
<path d="M13.2 5.4C15.8 5.4 18 7.5 18 10.2C18 12.9 15.9 15 13.2 15C10.5 15 8.4 12.9 8.4 10.2C8.4 7.5 10.6 5.4 13.2 5.4ZM13.2 3.4C9.5 3.4 6.4 6.4 6.4 10.2C6.4 14 9.4 17 13.2 17C17 17 20 14 20 10.2C20 6.4 16.9 3.4 13.2 3.4Z" fill="#151528"/>
<path d="M17 11.4V8.8L14.4 9.7C14.4 9.6 14.3 9.5 14.3 9.5L16.8 8.3L15 6.5L13.8 9C13.7 9 13.6 8.9 13.5 8.9L14.4 6.3H11.8L12.7 8.9C12.6 8.9 12.5 9 12.5 9L11.3 6.5L9.5 8.3L12 9.5C12 9.6 11.9 9.7 11.9 9.8L9.3 8.9V11.5L11.9 10.6C11.9 10.7 12 10.8 12 10.8L9.6 12L11.4 13.8L12.6 11.3C12.7 11.3 12.8 11.4 12.9 11.4L11.9 14H14.5L13.6 11.4C13.7 11.4 13.8 11.3 13.8 11.3L15 13.8L16.8 12L14.3 10.8C14.3 10.7 14.4 10.6 14.4 10.5L17 11.4Z" fill="#151528"/>
<path d="M29.1 5.4C31.7 5.4 33.9 7.5 33.9 10.2C33.9 12.9 31.8 15 29.1 15C26.4 15 24.3 12.9 24.3 10.2C24.3 7.5 26.5 5.4 29.1 5.4ZM29.1 3.4C25.4 3.4 22.3 6.4 22.3 10.2C22.3 14 25.3 17 29.1 17C32.9 17 35.9 14 35.9 10.2C35.9 6.4 32.8 3.4 29.1 3.4Z" fill="#151528"/>
<path d="M33 11.4V8.8L30.4 9.7C30.4 9.6 30.3 9.5 30.3 9.5L32.8 8.3L31 6.5L29.7 9C29.6 9 29.5 8.9 29.4 8.9L30.3 6.3H27.7L28.6 8.9C28.5 8.9 28.4 9 28.4 9L27.2 6.5L25.4 8.3L27.9 9.5C27.9 9.6 27.8 9.7 27.8 9.8L25.2 8.9V11.5L27.8 10.6C27.8 10.7 27.9 10.8 27.9 10.8L25.5 12L27.3 13.8L28.5 11.3C28.6 11.3 28.7 11.4 28.8 11.4L27.8 14H30.4L29.5 11.4C29.6 11.4 29.7 11.3 29.7 11.3L30.9 13.8L32.7 12L30.2 10.8C30.2 10.7 30.3 10.6 30.3 10.5L33 11.4Z" fill="#151528"/>
<path d="M38.2 0H4.5C4.3 0 4 -5.73695e-07 3.8 0.0999994C3.6 -5.73695e-07 3.5 0 3.3 0H1.4C0.600002 0 0 0.6 0 1.4V25.6C0 26.4 0.600002 27 1.4 27H3.3C4.1 27 4.7 26.4 4.7 25.6V20.4H6V22.3C6 23.1 6.6 23.7 7.4 23.7H21.9C22.7 23.7 23.3 23.1 23.3 22.3V20.4H24.7V22.3C24.7 23.1 25.3 23.7 26.1 23.7H30.6C31.4 23.7 32 23.1 32 22.3V20.4H38.2C39.2 20.4 40 19.6 40 18.7V1.7C40 0.7 39.2 0 38.2 0ZM2.7 25H2V2H2.7V25ZM21.3 21.7H8V20.3H21.3V21.7ZM30 21.7H26.7V20.3H30V21.7ZM38 18.4H4.7V2H38V18.4Z" fill="#151528"/>
</svg>
