<svg width="30" height="40" viewBox="0 0 30 40" fill="none" xmlns="http://www.w3.org/2000/svg">
<path d="M20.6 13.9V30.1H9.4V13.9H20.6ZM21.8 11.9H8.2C7.8 11.9 7.5 12.2 7.5 12.6V31.3C7.5 31.7 7.8 32 8.2 32H21.9C22.3 32 22.6 31.7 22.6 31.3V12.6C22.6 12.2 22.3 11.9 21.8 11.9Z" fill="#151528"/>
<path d="M29.3 0H0.8C0.3 0 0 0.299999 0 0.799999V39.3C0 39.7 0.3 40 0.8 40H29.3C29.7 40 30 39.7 30 39.3V0.799999C30 0.299999 29.7 0 29.3 0ZM20.6 2V3.1H9.4V2H20.6ZM28 38H2V2H7.4V4.4C7.4 4.8 7.7 5.1 8.1 5.1H21.8C22.2 5.1 22.5 4.8 22.5 4.4V2H28V38Z" fill="#151528"/>
<path d="M4.1 2.8C3.4 2.8 2.8 3.4 2.8 4.1C2.8 4.8 3.4 5.4 4.1 5.4C4.8 5.4 5.4 4.8 5.4 4.1C5.4 3.4 4.8 2.8 4.1 2.8Z" fill="#151528"/>
<path d="M25.9 2.8C25.2 2.8 24.6 3.4 24.6 4.1C24.6 4.8 25.2 5.4 25.9 5.4C26.6 5.4 27.2 4.8 27.2 4.1C27.2 3.4 26.7 2.8 25.9 2.8Z" fill="#151528"/>
<path d="M4.1 34.5C3.4 34.5 2.8 35.1 2.8 35.8C2.8 36.5 3.4 37.1 4.1 37.1C4.8 37.1 5.4 36.5 5.4 35.8C5.4 35.1 4.8 34.5 4.1 34.5Z" fill="#151528"/>
<path d="M25.9 34.5C25.2 34.5 24.6 35.1 24.6 35.8C24.6 36.5 25.2 37.1 25.9 37.1C26.6 37.1 27.2 36.5 27.2 35.8C27.3 35.1 26.7 34.5 25.9 34.5Z" fill="#151528"/>
</svg>
