<svg width="30" height="40" viewBox="0 0 30 40" fill="none" xmlns="http://www.w3.org/2000/svg">
<path d="M28 2V38H2V2H28ZM29.26 0H0.73999C0.32999 0 0 0.330002 0 0.740002V39.26C0 39.67 0.32999 40 0.73999 40H29.26C29.67 40 30 39.67 30 39.26V0.740002C30 0.330002 29.67 0 29.26 0Z" fill="#151528"/>
<path d="M4.06 2.84C3.32 2.84 2.73 3.44 2.73 4.17C2.73 4.9 3.33 5.5 4.06 5.5C4.79 5.5 5.39 4.9 5.39 4.17C5.39 3.44 4.79 2.84 4.06 2.84Z" fill="#151528"/>
<path d="M25.93 2.84C25.19 2.84 24.6 3.44 24.6 4.17C24.6 4.9 25.2 5.5 25.93 5.5C26.66 5.5 27.26 4.9 27.26 4.17C27.26 3.44 26.66 2.84 25.93 2.84Z" fill="#151528"/>
<path d="M4.06 34.49C3.32 34.49 2.73 35.09 2.73 35.82C2.73 36.55 3.33 37.15 4.06 37.15C4.79 37.15 5.39 36.55 5.39 35.82C5.39 35.09 4.79 34.49 4.06 34.49Z" fill="#151528"/>
<path d="M25.93 34.49C25.19 34.49 24.6 35.09 24.6 35.82C24.6 36.55 25.2 37.15 25.93 37.15C26.66 37.15 27.26 36.55 27.26 35.82C27.26 35.09 26.66 34.49 25.93 34.49Z" fill="#151528"/>
<path d="M15 13.24C16.1 13.24 17 14.14 17 15.24C17 16.34 16.1 17.24 15 17.24C13.9 17.24 13 16.34 13 15.24C13 14.14 13.9 13.24 15 13.24ZM15 11.24C12.79 11.24 11 13.03 11 15.24C11 17.45 12.79 19.24 15 19.24C17.21 19.24 19 17.45 19 15.24C19 13.03 17.21 11.24 15 11.24Z" fill="#151528"/>
<path d="M15 14.6C14.65 14.6 14.36 14.88 14.36 15.24C14.36 15.6 14.64 15.88 15 15.88C15.36 15.88 15.64 15.6 15.64 15.24C15.64 14.88 15.36 14.6 15 14.6Z" fill="#151528"/>
<path d="M15 3.77C8.67 3.77 3.53 8.9 3.53 15.24C3.53 20.44 6.99 24.82 11.73 26.23L6.64 31.32L5.56999 30.25L4.15999 31.66L7.7 35.2L9.11 33.79L8.06 32.74L14.13 26.67C14.42 26.69 14.7 26.71 15 26.71C21.33 26.71 26.47 21.58 26.47 15.24C26.47 8.9 21.34 3.77 15 3.77ZM16.17 24.62L19.19 21.6L17.78 20.19L13.41 24.56C8.94999 23.8 5.53999 19.91 5.53999 15.24C5.53999 10.02 9.79 5.77 15.01 5.77C20.23 5.77 24.48 10.02 24.48 15.24C24.48 20.06 20.85 24.05 16.18 24.63L16.17 24.62Z" fill="#151528"/>
</svg>
