<svg width="40" height="26" viewBox="0 0 40 26" fill="none" xmlns="http://www.w3.org/2000/svg">
<path d="M37.97 2C37.97 2 38 2.08 38 2.15V22.98C38 23.05 37.98 23.1 37.97 23.13H2.04C2.04 23.13 2.01 23.05 2.01 22.98V2.15C2.01 2.08 2.03 2.03 2.04 2H37.97ZM38.06 0H1.94C0.870002 0 0 0.96 0 2.15V22.98C0 24.17 0.870002 25.13 1.94 25.13H38.06C39.13 25.13 40 24.17 40 22.98V2.15C40 0.96 39.13 0 38.06 0Z" fill="#151528"/>
<path d="M12.8 6.27C16.27 6.27 19.1 9.09 19.1 12.57C19.1 16.05 16.28 18.87 12.8 18.87C9.32 18.87 6.5 16.05 6.5 12.57C6.5 9.09 9.32 6.27 12.8 6.27ZM12.8 4.27C8.22 4.27 4.5 7.98 4.5 12.57C4.5 17.16 8.21 20.87 12.8 20.87C17.39 20.87 21.1 17.16 21.1 12.57C21.1 7.98 17.39 4.27 12.8 4.27Z" fill="#151528"/>
<path d="M17.52 14.12V10.94L14.36 12.06C14.33 11.95 14.28 11.85 14.23 11.75L17.24 10.32L14.99 8.07L13.55 11.09C13.45 11.04 13.35 11 13.24 10.97L14.35 7.83H11.17L12.29 10.99C12.18 11.02 12.08 11.07 11.98 11.12L10.55 8.11L8.3 10.36L11.32 11.8C11.27 11.9 11.23 12 11.2 12.11L8.06 11V14.18L11.22 13.06C11.25 13.17 11.3 13.27 11.35 13.37L8.34 14.8L10.59 17.05L12.03 14.03C12.13 14.08 12.23 14.12 12.34 14.15L11.23 17.29H14.41L13.29 14.13C13.4 14.1 13.5 14.05 13.6 14L15.03 17.01L17.28 14.76L14.26 13.32C14.31 13.22 14.35 13.12 14.38 13.01L17.52 14.12Z" fill="#151528"/>
<path d="M32.87 6.7V9.43H28.52V6.7H32.87ZM33.13 4.7H28.26C27.3 4.7 26.52 5.48 26.52 6.44V9.69C26.52 10.65 27.3 11.43 28.26 11.43H33.13C34.09 11.43 34.87 10.65 34.87 9.69V6.44C34.87 5.48 34.09 4.7 33.13 4.7Z" fill="#151528"/>
<path d="M32.23 16.07H29.15C28.6198 16.07 28.19 16.4998 28.19 17.03V17.62C28.19 18.1502 28.6198 18.58 29.15 18.58H32.23C32.7602 18.58 33.19 18.1502 33.19 17.62V17.03C33.19 16.4998 32.7602 16.07 32.23 16.07Z" fill="#151528"/>
</svg>
