<svg width="30" height="40" viewBox="0 0 30 40" fill="none" xmlns="http://www.w3.org/2000/svg">
<path d="M29.26 0H0.739998C0.329998 0 0 0.330002 0 0.740002V39.26C0 39.67 0.329998 40 0.739998 40H29.26C29.67 40 30 39.67 30 39.26V0.740002C30 0.330002 29.67 0 29.26 0ZM28 18.02C27.09 12.02 22.14 7.34 16 6.88V2H28V18.02ZM16 21.23C16.36 20.94 16.59 20.5 16.59 20C16.59 19.5 16.36 19.06 16 18.77V17.71C16.88 18.1 17.5 18.98 17.5 20C17.5 21.02 16.88 21.9 16 22.29V21.23ZM16 24.39C18 23.93 19.5 22.14 19.5 20C19.5 17.86 18 16.06 16 15.61V8.89C21.68 9.39 26.16 14.18 26.16 20C26.16 25.82 21.68 30.61 16 31.11V24.39ZM2 2H14V38H2V2ZM16 38V33.12C22.14 32.66 27.09 27.98 28 21.98V38H16Z" fill="#151528"/>
<path d="M12.72 3.46H8.72V7.46H12.72V3.46Z" fill="#151528"/>
<path d="M12.72 8.89H8.72V12.89H12.72V8.89Z" fill="#151528"/>
<path d="M7.29 3.46H3.29V7.46H7.29V3.46Z" fill="#151528"/>
<path d="M7.29 8.89H3.29V12.89H7.29V8.89Z" fill="#151528"/>
</svg>
