<svg width="280" height="304" viewBox="0 0 280 304" fill="none" xmlns="http://www.w3.org/2000/svg">
<g clip-path="url(#clip0_259_1275)">
<path d="M257.534 0.427002H267.707V290.764H257.534C256.601 290.764 255.838 289.996 255.838 289.056V2.13487C255.838 1.19554 256.601 0.427002 257.534 0.427002Z" stroke="#151528" stroke-miterlimit="10"/>
<path d="M9.74965 0.427002H2.11953C1.18309 0.427002 0.42395 1.19164 0.42395 2.13487V289.056C0.42395 289.999 1.18309 290.764 2.11953 290.764H9.74965C10.6861 290.764 11.4452 289.999 11.4452 289.056V2.13487C11.4452 1.19164 10.6861 0.427002 9.74965 0.427002Z" stroke="#151528" stroke-miterlimit="10"/>
<path d="M254.142 0.427002H2.11953C1.18309 0.427002 0.42395 1.19164 0.42395 2.13487V289.056C0.42395 289.999 1.18309 290.764 2.11953 290.764H254.142C255.079 290.764 255.838 289.999 255.838 289.056V2.13487C255.838 1.19164 255.079 0.427002 254.142 0.427002Z" stroke="#151528" stroke-miterlimit="10"/>
<path d="M58.9554 303.573H15.3874C14.2344 303.573 13.2255 302.796 12.9288 301.669L10.0378 290.764H64.2965L61.4055 301.669C61.1088 302.788 60.0999 303.573 58.9469 303.573H58.9554Z" stroke="#151528" stroke-miterlimit="10"/>
<path d="M251.421 303.573H207.853C206.7 303.573 205.691 302.796 205.394 301.669L202.503 290.764H256.762L253.871 301.669C253.574 302.788 252.565 303.573 251.412 303.573H251.421Z" stroke="#151528" stroke-miterlimit="10"/>
<path d="M263.273 0.427002H3.84903C2.91258 0.427002 2.15344 1.19164 2.15344 2.13487V14.0899C2.15344 15.0332 2.91258 15.7978 3.84903 15.7978H263.273C264.21 15.7978 264.969 15.0332 264.969 14.0899V2.13487C264.969 1.19164 264.21 0.427002 263.273 0.427002Z" fill="white" stroke="#151528" stroke-miterlimit="10"/>
<path d="M11.4452 226.113H255.838" stroke="#151528" stroke-miterlimit="10"/>
<path d="M11.4452 217.454H255.838" stroke="#151528" stroke-miterlimit="10"/>
<path d="M39.4816 172.324C41.8227 172.324 43.7206 170.412 43.7206 168.054C43.7206 165.696 41.8227 163.784 39.4816 163.784C37.1405 163.784 35.2427 165.696 35.2427 168.054C35.2427 170.412 37.1405 172.324 39.4816 172.324Z" stroke="#151528" stroke-miterlimit="10"/>
<path d="M39.4816 170.616C40.8863 170.616 42.025 169.469 42.025 168.054C42.025 166.639 40.8863 165.492 39.4816 165.492C38.0769 165.492 36.9382 166.639 36.9382 168.054C36.9382 169.469 38.0769 170.616 39.4816 170.616Z" fill="#151528"/>
<path d="M90.3491 172.324C92.6902 172.324 94.588 170.412 94.588 168.054C94.588 165.696 92.6902 163.784 90.3491 163.784C88.008 163.784 86.1101 165.696 86.1101 168.054C86.1101 170.412 88.008 172.324 90.3491 172.324Z" stroke="#151528" stroke-miterlimit="10"/>
<path d="M90.3492 170.616C91.7538 170.616 92.8925 169.469 92.8925 168.054C92.8925 166.639 91.7538 165.492 90.3492 165.492C88.9445 165.492 87.8058 166.639 87.8058 168.054C87.8058 169.469 88.9445 170.616 90.3492 170.616Z" fill="#151528"/>
<path d="M39.4816 212.467C41.8227 212.467 43.7206 210.555 43.7206 208.197C43.7206 205.839 41.8227 203.927 39.4816 203.927C37.1405 203.927 35.2427 205.839 35.2427 208.197C35.2427 210.555 37.1405 212.467 39.4816 212.467Z" stroke="#151528" stroke-miterlimit="10"/>
<path d="M39.4816 210.759C40.8863 210.759 42.025 209.612 42.025 208.197C42.025 206.782 40.8863 205.635 39.4816 205.635C38.0769 205.635 36.9382 206.782 36.9382 208.197C36.9382 209.612 38.0769 210.759 39.4816 210.759Z" fill="#151528"/>
<path d="M90.3491 212.467C92.6902 212.467 94.588 210.555 94.588 208.197C94.588 205.839 92.6902 203.927 90.3491 203.927C88.008 203.927 86.1101 205.839 86.1101 208.197C86.1101 210.555 88.008 212.467 90.3491 212.467Z" stroke="#151528" stroke-miterlimit="10"/>
<path d="M90.3492 210.759C91.7538 210.759 92.8925 209.612 92.8925 208.197C92.8925 206.782 91.7538 205.635 90.3492 205.635C88.9445 205.635 87.8058 206.782 87.8058 208.197C87.8058 209.612 88.9445 210.759 90.3492 210.759Z" fill="#151528"/>
<path d="M242.536 70.2786C244.877 70.2786 246.775 68.367 246.775 66.0089C246.775 63.6509 244.877 61.7393 242.536 61.7393C240.195 61.7393 238.297 63.6509 238.297 66.0089C238.297 68.367 240.195 70.2786 242.536 70.2786Z" stroke="#151528" stroke-miterlimit="10"/>
<path d="M242.536 68.5706C243.941 68.5706 245.079 67.4237 245.079 66.0088C245.079 64.594 243.941 63.447 242.536 63.447C241.131 63.447 239.993 64.594 239.993 66.0088C239.993 67.4237 241.131 68.5706 242.536 68.5706Z" fill="#151528"/>
<path d="M242.536 121.514C244.877 121.514 246.775 119.603 246.775 117.245C246.775 114.887 244.877 112.975 242.536 112.975C240.195 112.975 238.297 114.887 238.297 117.245C238.297 119.603 240.195 121.514 242.536 121.514Z" stroke="#151528" stroke-miterlimit="10"/>
<path d="M242.536 119.807C243.941 119.807 245.079 118.66 245.079 117.245C245.079 115.83 243.941 114.683 242.536 114.683C241.131 114.683 239.993 115.83 239.993 117.245C239.993 118.66 241.131 119.807 242.536 119.807Z" fill="#151528"/>
<path d="M202.69 70.2786C205.031 70.2786 206.929 68.367 206.929 66.0089C206.929 63.6509 205.031 61.7393 202.69 61.7393C200.349 61.7393 198.451 63.6509 198.451 66.0089C198.451 68.367 200.349 70.2786 202.69 70.2786Z" stroke="#151528" stroke-miterlimit="10"/>
<path d="M202.69 68.5706C204.095 68.5706 205.233 67.4237 205.233 66.0088C205.233 64.594 204.095 63.447 202.69 63.447C201.285 63.447 200.146 64.594 200.146 66.0088C200.146 67.4237 201.285 68.5706 202.69 68.5706Z" fill="#151528"/>
<path d="M202.69 121.514C205.031 121.514 206.929 119.603 206.929 117.245C206.929 114.887 205.031 112.975 202.69 112.975C200.349 112.975 198.451 114.887 198.451 117.245C198.451 119.603 200.349 121.514 202.69 121.514Z" stroke="#151528" stroke-miterlimit="10"/>
<path d="M202.69 119.807C204.095 119.807 205.233 118.66 205.233 117.245C205.233 115.83 204.095 114.683 202.69 114.683C201.285 114.683 200.146 115.83 200.146 117.245C200.146 118.66 201.285 119.807 202.69 119.807Z" fill="#151528"/>
<path d="M184.208 149.558H175.73C173.389 149.558 171.491 151.469 171.491 153.828V205.063C171.491 207.422 173.389 209.333 175.73 209.333H184.208C186.549 209.333 188.447 207.422 188.447 205.063V153.828C188.447 151.469 186.549 149.558 184.208 149.558Z" stroke="#151528" stroke-miterlimit="10"/>
<path d="M184.208 58.187H175.73C173.389 58.187 171.491 60.0986 171.491 62.4567V113.693C171.491 116.051 173.389 117.962 175.73 117.962H184.208C186.549 117.962 188.447 116.051 188.447 113.693V62.4567C188.447 60.0986 186.549 58.187 184.208 58.187Z" stroke="#151528" stroke-miterlimit="10"/>
<path d="M145.269 57.9819H35.0562C32.7151 57.9819 30.8173 59.8935 30.8173 62.2516V149.353C30.8173 151.711 32.7151 153.622 35.0562 153.622H145.269C147.61 153.622 149.508 151.711 149.508 149.353V62.2516C149.508 59.8935 147.61 57.9819 145.269 57.9819Z" stroke="#151528" stroke-miterlimit="10"/>
<path d="M145.269 32.0566H128.313C125.972 32.0566 124.074 33.9682 124.074 36.3263V41.4499C124.074 43.808 125.972 45.7196 128.313 45.7196H145.269C147.61 45.7196 149.508 43.808 149.508 41.4499V36.3263C149.508 33.9682 147.61 32.0566 145.269 32.0566Z" stroke="#151528" stroke-miterlimit="10"/>
<path d="M52.012 32.0566H35.0562C32.7151 32.0566 30.8173 33.9682 30.8173 36.3263V41.4499C30.8173 43.808 32.7151 45.7196 35.0562 45.7196H52.012C54.3532 45.7196 56.251 43.808 56.251 41.4499V36.3263C56.251 33.9682 54.3532 32.0566 52.012 32.0566Z" stroke="#151528" stroke-miterlimit="10"/>
<path d="M119.547 159.831C120.249 159.831 120.819 159.257 120.819 158.55C120.819 157.842 120.249 157.269 119.547 157.269C118.845 157.269 118.275 157.842 118.275 158.55C118.275 159.257 118.845 159.831 119.547 159.831Z" fill="#151528"/>
<path d="M119.547 190.572C120.249 190.572 120.819 189.999 120.819 189.291C120.819 188.584 120.249 188.01 119.547 188.01C118.845 188.01 118.275 188.584 118.275 189.291C118.275 189.999 118.845 190.572 119.547 190.572Z" fill="#151528"/>
<path d="M119.547 204.235C120.249 204.235 120.819 203.662 120.819 202.954C120.819 202.247 120.249 201.673 119.547 201.673C118.845 201.673 118.275 202.247 118.275 202.954C118.275 203.662 118.845 204.235 119.547 204.235Z" fill="#151528"/>
<path d="M20.347 210.213C21.0493 210.213 21.6187 209.639 21.6187 208.932C21.6187 208.224 21.0493 207.651 20.347 207.651C19.6447 207.651 19.0753 208.224 19.0753 208.932C19.0753 209.639 19.6447 210.213 20.347 210.213Z" fill="#151528"/>
<path d="M16.9558 190.572C17.6581 190.572 18.2275 189.999 18.2275 189.291C18.2275 188.584 17.6581 188.01 16.9558 188.01C16.2534 188.01 15.6841 188.584 15.6841 189.291C15.6841 189.999 16.2534 190.572 16.9558 190.572Z" fill="#151528"/>
<path d="M16.9558 159.831C17.6581 159.831 18.2275 159.257 18.2275 158.55C18.2275 157.842 17.6581 157.269 16.9558 157.269C16.2534 157.269 15.6841 157.842 15.6841 158.55C15.6841 159.257 16.2534 159.831 16.9558 159.831Z" fill="#151528"/>
<path d="M20.347 40.2715C21.0493 40.2715 21.6187 39.698 21.6187 38.9906C21.6187 38.2832 21.0493 37.7097 20.347 37.7097C19.6447 37.7097 19.0753 38.2832 19.0753 38.9906C19.0753 39.698 19.6447 40.2715 20.347 40.2715Z" fill="#151528"/>
<path d="M31.3768 54.7884C32.0791 54.7884 32.6485 54.2149 32.6485 53.5075C32.6485 52.8 32.0791 52.2266 31.3768 52.2266C30.6745 52.2266 30.1051 52.8 30.1051 53.5075C30.1051 54.2149 30.6745 54.7884 31.3768 54.7884Z" fill="#151528"/>
<path d="M119.547 54.7884C120.249 54.7884 120.819 54.2149 120.819 53.5075C120.819 52.8 120.249 52.2266 119.547 52.2266C118.845 52.2266 118.275 52.8 118.275 53.5075C118.275 54.2149 118.845 54.7884 119.547 54.7884Z" fill="#151528"/>
<path d="M167.032 54.7884C167.734 54.7884 168.304 54.2149 168.304 53.5075C168.304 52.8 167.734 52.2266 167.032 52.2266C166.329 52.2266 165.76 52.8 165.76 53.5075C165.76 54.2149 166.329 54.7884 167.032 54.7884Z" fill="#151528"/>
<path d="M172.119 39.8446C172.587 39.8446 172.966 39.4623 172.966 38.9907C172.966 38.519 172.587 38.1367 172.119 38.1367C171.65 38.1367 171.271 38.519 171.271 38.9907C171.271 39.4623 171.65 39.8446 172.119 39.8446Z" fill="#151528"/>
<path d="M188.227 39.8446C188.695 39.8446 189.074 39.4623 189.074 38.9907C189.074 38.519 188.695 38.1367 188.227 38.1367C187.758 38.1367 187.379 38.519 187.379 38.9907C187.379 39.4623 187.758 39.8446 188.227 39.8446Z" fill="#151528"/>
<path d="M244.181 49.6648C244.883 49.6648 245.453 49.0913 245.453 48.3839C245.453 47.6765 244.883 47.103 244.181 47.103C243.479 47.103 242.909 47.6765 242.909 48.3839C242.909 49.0913 243.479 49.6648 244.181 49.6648Z" fill="#151528"/>
<path d="M167.032 159.831C167.734 159.831 168.304 159.257 168.304 158.55C168.304 157.842 167.734 157.269 167.032 157.269C166.329 157.269 165.76 157.842 165.76 158.55C165.76 159.257 166.329 159.831 167.032 159.831Z" fill="#151528"/>
<path d="M242.536 10.6741C243.941 10.6741 245.079 9.52718 245.079 8.11233C245.079 6.69749 243.941 5.55054 242.536 5.55054C241.131 5.55054 239.993 6.69749 239.993 8.11233C239.993 9.52718 241.131 10.6741 242.536 10.6741Z" stroke="#151528" stroke-miterlimit="10"/>
<path d="M267.707 0.427002H277.881C278.813 0.427002 279.576 1.19554 279.576 2.13487V289.056C279.576 289.996 278.813 290.764 277.881 290.764H267.707V0.427002Z" stroke="#151528" stroke-miterlimit="10"/>
<path d="M270.674 285.214H269.827V284.36H270.674V285.214ZM270.674 283.506H269.827V282.652H270.674V283.506ZM270.674 281.798H269.827V280.944H270.674V281.798ZM270.674 280.09H269.827V279.236H270.674V280.09ZM270.674 278.382H269.827V277.528H270.674V278.382ZM270.674 276.674H269.827V275.82H270.674V276.674ZM270.674 274.966H269.827V274.112H270.674V274.966ZM270.674 273.258H269.827V272.405H270.674V273.258ZM270.674 271.551H269.827V270.697H270.674V271.551ZM270.674 269.843H269.827V268.989H270.674V269.843ZM270.674 268.135H269.827V267.281H270.674V268.135ZM270.674 266.427H269.827V265.573H270.674V266.427ZM270.674 264.719H269.827V263.865H270.674V264.719ZM270.674 263.011H269.827V262.157H270.674V263.011ZM270.674 261.303H269.827V260.449H270.674V261.303ZM270.674 259.596H269.827V258.742H270.674V259.596ZM270.674 257.888H269.827V257.034H270.674V257.888ZM270.674 256.18H269.827V255.326H270.674V256.18ZM270.674 254.472H269.827V253.618H270.674V254.472ZM270.674 252.764H269.827V251.91H270.674V252.764ZM270.674 251.056H269.827V250.202H270.674V251.056ZM270.674 249.348H269.827V248.494H270.674V249.348ZM270.674 247.64H269.827V246.787H270.674V247.64ZM270.674 245.933H269.827V245.079H270.674V245.933ZM270.674 244.225H269.827V243.371H270.674V244.225ZM270.674 242.517H269.827V241.663H270.674V242.517ZM270.674 240.809H269.827V239.955H270.674V240.809ZM270.674 239.101H269.827V238.247H270.674V239.101ZM270.674 237.393H269.827V236.539H270.674V237.393ZM270.674 235.685H269.827V234.831H270.674V235.685ZM270.674 233.978H269.827V233.124H270.674V233.978ZM270.674 232.27H269.827V231.416H270.674V232.27ZM270.674 230.562H269.827V229.708H270.674V230.562ZM270.674 228.854H269.827V228H270.674V228.854ZM270.674 227.146H269.827V226.292H270.674V227.146ZM270.674 225.438H269.827V224.584H270.674V225.438ZM270.674 223.73H269.827V222.876H270.674V223.73ZM270.674 222.022H269.827V221.169H270.674V222.022ZM270.674 220.315H269.827V219.461H270.674V220.315ZM270.674 218.607H269.827V217.753H270.674V218.607ZM270.674 216.899H269.827V216.045H270.674V216.899ZM270.674 215.191H269.827V214.337H270.674V215.191ZM270.674 213.483H269.827V212.629H270.674V213.483ZM270.674 211.775H269.827V210.921H270.674V211.775ZM270.674 210.067H269.827V209.214H270.674V210.067ZM270.674 208.36H269.827V207.506H270.674V208.36ZM270.674 206.652H269.827V205.798H270.674V206.652ZM270.674 204.944H269.827V204.09H270.674V204.944ZM270.674 203.236H269.827V202.382H270.674V203.236ZM270.674 201.528H269.827V200.674H270.674V201.528ZM270.674 199.82H269.827V198.966H270.674V199.82ZM270.674 198.112H269.827V197.258H270.674V198.112ZM270.674 196.405H269.827V195.551H270.674V196.405ZM270.674 194.697H269.827V193.843H270.674V194.697ZM270.674 192.989H269.827V192.135H270.674V192.989ZM270.674 191.281H269.827V190.427H270.674V191.281ZM270.674 189.573H269.827V188.719H270.674V189.573ZM270.674 187.865H269.827V187.011H270.674V187.865ZM270.674 186.157H269.827V185.303H270.674V186.157ZM270.674 184.449H269.827V183.596H270.674V184.449ZM270.674 182.742H269.827V181.888H270.674V182.742ZM270.674 181.034H269.827V180.18H270.674V181.034ZM270.674 179.326H269.827V178.472H270.674V179.326ZM270.674 177.618H269.827V176.764H270.674V177.618ZM270.674 175.91H269.827V175.056H270.674V175.91ZM270.674 174.202H269.827V173.348H270.674V174.202ZM270.674 172.494H269.827V171.64H270.674V172.494ZM270.674 170.787H269.827V169.933H270.674V170.787ZM270.674 169.079H269.827V168.225H270.674V169.079ZM270.674 167.371H269.827V166.517H270.674V167.371ZM270.674 165.663H269.827V164.809H270.674V165.663ZM270.674 163.955H269.827V163.101H270.674V163.955ZM270.674 162.247H269.827V161.393H270.674V162.247ZM270.674 160.539H269.827V159.685H270.674V160.539ZM270.674 158.831H269.827V157.978H270.674V158.831ZM270.674 157.124H269.827V156.27H270.674V157.124ZM270.674 155.416H269.827V154.562H270.674V155.416ZM270.674 153.708H269.827V152.854H270.674V153.708ZM270.674 152H269.827V151.146H270.674V152ZM270.674 150.292H269.827V149.438H270.674V150.292ZM270.674 148.584H269.827V147.73H270.674V148.584ZM270.674 146.876H269.827V146.022H270.674V146.876ZM270.674 145.169H269.827V144.315H270.674V145.169ZM270.674 143.461H269.827V142.607H270.674V143.461ZM270.674 141.753H269.827V140.899H270.674V141.753ZM270.674 140.045H269.827V139.191H270.674V140.045ZM270.674 138.337H269.827V137.483H270.674V138.337ZM270.674 136.629H269.827V135.775H270.674V136.629ZM270.674 134.921H269.827V134.067H270.674V134.921ZM270.674 133.214H269.827V132.36H270.674V133.214ZM270.674 131.506H269.827V130.652H270.674V131.506ZM270.674 129.798H269.827V128.944H270.674V129.798ZM270.674 128.09H269.827V127.236H270.674V128.09ZM270.674 126.382H269.827V125.528H270.674V126.382ZM270.674 124.674H269.827V123.82H270.674V124.674ZM270.674 122.966H269.827V122.112H270.674V122.966ZM270.674 121.258H269.827V120.405H270.674V121.258ZM270.674 119.551H269.827V118.697H270.674V119.551ZM270.674 117.843H269.827V116.989H270.674V117.843ZM270.674 116.135H269.827V115.281H270.674V116.135ZM270.674 114.427H269.827V113.573H270.674V114.427ZM270.674 112.719H269.827V111.865H270.674V112.719ZM270.674 111.011H269.827V110.157H270.674V111.011ZM270.674 109.303H269.827V108.449H270.674V109.303ZM270.674 107.596H269.827V106.742H270.674V107.596ZM270.674 105.888H269.827V105.034H270.674V105.888ZM270.674 104.18H269.827V103.326H270.674V104.18ZM270.674 102.472H269.827V101.618H270.674V102.472ZM270.674 100.764H269.827V99.9101H270.674V100.764ZM270.674 99.0562H269.827V98.2023H270.674V99.0562ZM270.674 97.3483H269.827V96.4944H270.674V97.3483ZM270.674 95.6405H269.827V94.7865H270.674V95.6405ZM270.674 93.9326H269.827V93.0787H270.674V93.9326ZM270.674 92.2247H269.827V91.3708H270.674V92.2247ZM270.674 90.5169H269.827V89.6629H270.674V90.5169ZM270.674 88.809H269.827V87.9551H270.674V88.809ZM270.674 87.1011H269.827V86.2472H270.674V87.1011ZM270.674 85.3933H269.827V84.5393H270.674V85.3933ZM270.674 83.6854H269.827V82.8315H270.674V83.6854ZM270.674 81.9775H269.827V81.1236H270.674V81.9775ZM270.674 80.2697H269.827V79.4157H270.674V80.2697ZM270.674 78.5618H269.827V77.7079H270.674V78.5618ZM270.674 76.8539H269.827V76H270.674V76.8539ZM270.674 75.1461H269.827V74.2921H270.674V75.1461ZM270.674 73.4382H269.827V72.5843H270.674V73.4382ZM270.674 71.7304H269.827V70.8764H270.674V71.7304ZM270.674 70.0225H269.827V69.1686H270.674V70.0225ZM270.674 68.3146H269.827V67.4607H270.674V68.3146ZM270.674 66.6068H269.827V65.7528H270.674V66.6068ZM270.674 64.8989H269.827V64.045H270.674V64.8989ZM270.674 63.191H269.827V62.3371H270.674V63.191ZM270.674 61.4832H269.827V60.6292H270.674V61.4832ZM270.674 59.7753H269.827V58.9214H270.674V59.7753ZM270.674 58.0674H269.827V57.2135H270.674V58.0674ZM270.674 56.3596H269.827V55.5056H270.674V56.3596ZM270.674 54.6517H269.827V53.7978H270.674V54.6517ZM270.674 52.9438H269.827V52.0899H270.674V52.9438ZM270.674 51.236H269.827V50.382H270.674V51.236ZM270.674 49.5281H269.827V48.6742H270.674V49.5281ZM270.674 47.8202H269.827V46.9663H270.674V47.8202ZM270.674 46.1124H269.827V45.2584H270.674V46.1124ZM270.674 44.4045H269.827V43.5506H270.674V44.4045ZM270.674 42.6966H269.827V41.8427H270.674V42.6966ZM270.674 40.9888H269.827V40.1348H270.674V40.9888ZM270.674 39.2809H269.827V38.427H270.674V39.2809ZM270.674 37.573H269.827V36.7191H270.674V37.573ZM270.674 35.8652H269.827V35.0112H270.674V35.8652ZM270.674 34.1573H269.827V33.3034H270.674V34.1573ZM270.674 32.4494H269.827V31.5955H270.674V32.4494ZM270.674 30.7416H269.827V29.8877H270.674V30.7416ZM270.674 29.0337H269.827V28.1798H270.674V29.0337ZM270.674 27.3259H269.827V26.4719H270.674V27.3259ZM270.674 25.618H269.827V24.7641H270.674V25.618ZM270.674 23.9101H269.827V23.0562H270.674V23.9101ZM270.674 22.2023H269.827V21.3483H270.674V22.2023ZM270.674 20.4944H269.827V19.6405H270.674V20.4944ZM270.674 18.7865H269.827V17.9326H270.674V18.7865ZM270.674 17.0787H269.827V16.2247H270.674V17.0787ZM270.674 15.3708H269.827V14.5169H270.674V15.3708ZM270.674 13.6629H269.827V12.809H270.674V13.6629ZM270.674 11.9551H269.827V11.1011H270.674V11.9551ZM270.674 10.2472H269.827V9.39327H270.674V10.2472ZM270.674 8.53934H269.827V7.6854H270.674V8.53934ZM270.674 6.83147H269.827V5.97754H270.674V6.83147Z" fill="#151528"/>
<path d="M277.457 285.214H276.609V284.36H277.457V285.214ZM277.457 283.506H276.609V282.652H277.457V283.506ZM277.457 281.798H276.609V280.944H277.457V281.798ZM277.457 280.09H276.609V279.236H277.457V280.09ZM277.457 278.382H276.609V277.528H277.457V278.382ZM277.457 276.674H276.609V275.82H277.457V276.674ZM277.457 274.966H276.609V274.112H277.457V274.966ZM277.457 273.258H276.609V272.405H277.457V273.258ZM277.457 271.551H276.609V270.697H277.457V271.551ZM277.457 269.843H276.609V268.989H277.457V269.843ZM277.457 268.135H276.609V267.281H277.457V268.135ZM277.457 266.427H276.609V265.573H277.457V266.427ZM277.457 264.719H276.609V263.865H277.457V264.719ZM277.457 263.011H276.609V262.157H277.457V263.011ZM277.457 261.303H276.609V260.449H277.457V261.303ZM277.457 259.596H276.609V258.742H277.457V259.596ZM277.457 257.888H276.609V257.034H277.457V257.888ZM277.457 256.18H276.609V255.326H277.457V256.18ZM277.457 254.472H276.609V253.618H277.457V254.472ZM277.457 252.764H276.609V251.91H277.457V252.764ZM277.457 251.056H276.609V250.202H277.457V251.056ZM277.457 249.348H276.609V248.494H277.457V249.348ZM277.457 247.64H276.609V246.787H277.457V247.64ZM277.457 245.933H276.609V245.079H277.457V245.933ZM277.457 244.225H276.609V243.371H277.457V244.225ZM277.457 242.517H276.609V241.663H277.457V242.517ZM277.457 240.809H276.609V239.955H277.457V240.809ZM277.457 239.101H276.609V238.247H277.457V239.101ZM277.457 237.393H276.609V236.539H277.457V237.393ZM277.457 235.685H276.609V234.831H277.457V235.685ZM277.457 233.978H276.609V233.124H277.457V233.978ZM277.457 232.27H276.609V231.416H277.457V232.27ZM277.457 230.562H276.609V229.708H277.457V230.562ZM277.457 228.854H276.609V228H277.457V228.854ZM277.457 227.146H276.609V226.292H277.457V227.146ZM277.457 225.438H276.609V224.584H277.457V225.438ZM277.457 223.73H276.609V222.876H277.457V223.73ZM277.457 222.022H276.609V221.169H277.457V222.022ZM277.457 220.315H276.609V219.461H277.457V220.315ZM277.457 218.607H276.609V217.753H277.457V218.607ZM277.457 216.899H276.609V216.045H277.457V216.899ZM277.457 215.191H276.609V214.337H277.457V215.191ZM277.457 213.483H276.609V212.629H277.457V213.483ZM277.457 211.775H276.609V210.921H277.457V211.775ZM277.457 210.067H276.609V209.214H277.457V210.067ZM277.457 208.36H276.609V207.506H277.457V208.36ZM277.457 206.652H276.609V205.798H277.457V206.652ZM277.457 204.944H276.609V204.09H277.457V204.944ZM277.457 203.236H276.609V202.382H277.457V203.236ZM277.457 201.528H276.609V200.674H277.457V201.528ZM277.457 199.82H276.609V198.966H277.457V199.82ZM277.457 198.112H276.609V197.258H277.457V198.112ZM277.457 196.405H276.609V195.551H277.457V196.405ZM277.457 194.697H276.609V193.843H277.457V194.697ZM277.457 192.989H276.609V192.135H277.457V192.989ZM277.457 191.281H276.609V190.427H277.457V191.281ZM277.457 189.573H276.609V188.719H277.457V189.573ZM277.457 187.865H276.609V187.011H277.457V187.865ZM277.457 186.157H276.609V185.303H277.457V186.157ZM277.457 184.449H276.609V183.596H277.457V184.449ZM277.457 182.742H276.609V181.888H277.457V182.742ZM277.457 181.034H276.609V180.18H277.457V181.034ZM277.457 179.326H276.609V178.472H277.457V179.326ZM277.457 177.618H276.609V176.764H277.457V177.618ZM277.457 175.91H276.609V175.056H277.457V175.91ZM277.457 174.202H276.609V173.348H277.457V174.202ZM277.457 172.494H276.609V171.64H277.457V172.494ZM277.457 170.787H276.609V169.933H277.457V170.787ZM277.457 169.079H276.609V168.225H277.457V169.079ZM277.457 167.371H276.609V166.517H277.457V167.371ZM277.457 165.663H276.609V164.809H277.457V165.663ZM277.457 163.955H276.609V163.101H277.457V163.955ZM277.457 162.247H276.609V161.393H277.457V162.247ZM277.457 160.539H276.609V159.685H277.457V160.539ZM277.457 158.831H276.609V157.978H277.457V158.831ZM277.457 157.124H276.609V156.27H277.457V157.124ZM277.457 155.416H276.609V154.562H277.457V155.416ZM277.457 153.708H276.609V152.854H277.457V153.708ZM277.457 152H276.609V151.146H277.457V152ZM277.457 150.292H276.609V149.438H277.457V150.292ZM277.457 148.584H276.609V147.73H277.457V148.584ZM277.457 146.876H276.609V146.022H277.457V146.876ZM277.457 145.169H276.609V144.315H277.457V145.169ZM277.457 143.461H276.609V142.607H277.457V143.461ZM277.457 141.753H276.609V140.899H277.457V141.753ZM277.457 140.045H276.609V139.191H277.457V140.045ZM277.457 138.337H276.609V137.483H277.457V138.337ZM277.457 136.629H276.609V135.775H277.457V136.629ZM277.457 134.921H276.609V134.067H277.457V134.921ZM277.457 133.214H276.609V132.36H277.457V133.214ZM277.457 131.506H276.609V130.652H277.457V131.506ZM277.457 129.798H276.609V128.944H277.457V129.798ZM277.457 128.09H276.609V127.236H277.457V128.09ZM277.457 126.382H276.609V125.528H277.457V126.382ZM277.457 124.674H276.609V123.82H277.457V124.674ZM277.457 122.966H276.609V122.112H277.457V122.966ZM277.457 121.258H276.609V120.405H277.457V121.258ZM277.457 119.551H276.609V118.697H277.457V119.551ZM277.457 117.843H276.609V116.989H277.457V117.843ZM277.457 116.135H276.609V115.281H277.457V116.135ZM277.457 114.427H276.609V113.573H277.457V114.427ZM277.457 112.719H276.609V111.865H277.457V112.719ZM277.457 111.011H276.609V110.157H277.457V111.011ZM277.457 109.303H276.609V108.449H277.457V109.303ZM277.457 107.596H276.609V106.742H277.457V107.596ZM277.457 105.888H276.609V105.034H277.457V105.888ZM277.457 104.18H276.609V103.326H277.457V104.18ZM277.457 102.472H276.609V101.618H277.457V102.472ZM277.457 100.764H276.609V99.9101H277.457V100.764ZM277.457 99.0562H276.609V98.2023H277.457V99.0562ZM277.457 97.3483H276.609V96.4944H277.457V97.3483ZM277.457 95.6405H276.609V94.7865H277.457V95.6405ZM277.457 93.9326H276.609V93.0787H277.457V93.9326ZM277.457 92.2247H276.609V91.3708H277.457V92.2247ZM277.457 90.5169H276.609V89.6629H277.457V90.5169ZM277.457 88.809H276.609V87.9551H277.457V88.809ZM277.457 87.1011H276.609V86.2472H277.457V87.1011ZM277.457 85.3933H276.609V84.5393H277.457V85.3933ZM277.457 83.6854H276.609V82.8315H277.457V83.6854ZM277.457 81.9775H276.609V81.1236H277.457V81.9775ZM277.457 80.2697H276.609V79.4157H277.457V80.2697ZM277.457 78.5618H276.609V77.7079H277.457V78.5618ZM277.457 76.8539H276.609V76H277.457V76.8539ZM277.457 75.1461H276.609V74.2921H277.457V75.1461ZM277.457 73.4382H276.609V72.5843H277.457V73.4382ZM277.457 71.7304H276.609V70.8764H277.457V71.7304ZM277.457 70.0225H276.609V69.1686H277.457V70.0225ZM277.457 68.3146H276.609V67.4607H277.457V68.3146ZM277.457 66.6068H276.609V65.7528H277.457V66.6068ZM277.457 64.8989H276.609V64.045H277.457V64.8989ZM277.457 63.191H276.609V62.3371H277.457V63.191ZM277.457 61.4832H276.609V60.6292H277.457V61.4832ZM277.457 59.7753H276.609V58.9214H277.457V59.7753ZM277.457 58.0674H276.609V57.2135H277.457V58.0674ZM277.457 56.3596H276.609V55.5056H277.457V56.3596ZM277.457 54.6517H276.609V53.7978H277.457V54.6517ZM277.457 52.9438H276.609V52.0899H277.457V52.9438ZM277.457 51.236H276.609V50.382H277.457V51.236ZM277.457 49.5281H276.609V48.6742H277.457V49.5281ZM277.457 47.8202H276.609V46.9663H277.457V47.8202ZM277.457 46.1124H276.609V45.2584H277.457V46.1124ZM277.457 44.4045H276.609V43.5506H277.457V44.4045ZM277.457 42.6966H276.609V41.8427H277.457V42.6966ZM277.457 40.9888H276.609V40.1348H277.457V40.9888ZM277.457 39.2809H276.609V38.427H277.457V39.2809ZM277.457 37.573H276.609V36.7191H277.457V37.573ZM277.457 35.8652H276.609V35.0112H277.457V35.8652ZM277.457 34.1573H276.609V33.3034H277.457V34.1573ZM277.457 32.4494H276.609V31.5955H277.457V32.4494ZM277.457 30.7416H276.609V29.8877H277.457V30.7416ZM277.457 29.0337H276.609V28.1798H277.457V29.0337ZM277.457 27.3259H276.609V26.4719H277.457V27.3259ZM277.457 25.618H276.609V24.7641H277.457V25.618ZM277.457 23.9101H276.609V23.0562H277.457V23.9101ZM277.457 22.2023H276.609V21.3483H277.457V22.2023ZM277.457 20.4944H276.609V19.6405H277.457V20.4944ZM277.457 18.7865H276.609V17.9326H277.457V18.7865ZM277.457 17.0787H276.609V16.2247H277.457V17.0787ZM277.457 15.3708H276.609V14.5169H277.457V15.3708ZM277.457 13.6629H276.609V12.809H277.457V13.6629ZM277.457 11.9551H276.609V11.1011H277.457V11.9551ZM277.457 10.2472H276.609V9.39327H277.457V10.2472ZM277.457 8.53934H276.609V7.6854H277.457V8.53934ZM277.457 6.83147H276.609V5.97754H277.457V6.83147Z" fill="#151528"/>
<path d="M275.761 283.079H274.913V282.225H275.761V283.079ZM275.761 281.379H274.913V280.525H275.761V281.379ZM275.761 279.68H274.913V278.826H275.761V279.68ZM275.761 277.981H274.913V277.127H275.761V277.981ZM275.761 276.281H274.913V275.427H275.761V276.281ZM275.761 274.582H274.913V273.728H275.761V274.582ZM275.761 272.883H274.913V272.029H275.761V272.883ZM275.761 271.183H274.913V270.329H275.761V271.183ZM275.761 269.484H274.913V268.63H275.761V269.484ZM275.761 267.785H274.913V266.931H275.761V267.785ZM275.761 266.085H274.913V265.232H275.761V266.085ZM275.761 264.386H274.913V263.532H275.761V264.386ZM275.761 262.687H274.913V261.833H275.761V262.687ZM275.761 260.987H274.913V260.134H275.761V260.987ZM275.761 259.288H274.913V258.434H275.761V259.288ZM275.761 257.589H274.913V256.735H275.761V257.589ZM275.761 255.889H274.913V255.036H275.761V255.889ZM275.761 254.19H274.913V253.336H275.761V254.19ZM275.761 252.491H274.913V251.637H275.761V252.491ZM275.761 250.792H274.913V249.938H275.761V250.792ZM275.761 249.092H274.913V248.238H275.761V249.092ZM275.761 247.393H274.913V246.539H275.761V247.393ZM275.761 245.694H274.913V244.84H275.761V245.694ZM275.761 243.994H274.913V243.14H275.761V243.994ZM275.761 242.295H274.913V241.441H275.761V242.295ZM275.761 240.596H274.913V239.742H275.761V240.596ZM275.761 238.896H274.913V238.042H275.761V238.896ZM275.761 237.197H274.913V236.343H275.761V237.197ZM275.761 235.498H274.913V234.644H275.761V235.498ZM275.761 233.798H274.913V232.944H275.761V233.798ZM275.761 232.099H274.913V231.245H275.761V232.099ZM275.761 230.4H274.913V229.546H275.761V230.4ZM275.761 228.7H274.913V227.846H275.761V228.7ZM275.761 227.001H274.913V226.147H275.761V227.001ZM275.761 225.302H274.913V224.448H275.761V225.302ZM275.761 223.602H274.913V222.748H275.761V223.602ZM275.761 221.903H274.913V221.049H275.761V221.903ZM275.761 220.204H274.913V219.35H275.761V220.204ZM275.761 218.504H274.913V217.65H275.761V218.504ZM275.761 216.805H274.913V215.951H275.761V216.805ZM275.761 215.106H274.913V214.252H275.761V215.106ZM275.761 213.406H274.913V212.552H275.761V213.406ZM275.761 211.707H274.913V210.853H275.761V211.707ZM275.761 210.008H274.913V209.154H275.761V210.008ZM275.761 208.308H274.913V207.454H275.761V208.308ZM275.761 206.609H274.913V205.755H275.761V206.609ZM275.761 204.91H274.913V204.056H275.761V204.91ZM275.761 203.21H274.913V202.356H275.761V203.21ZM275.761 201.511H274.913V200.657H275.761V201.511ZM275.761 199.812H274.913V198.958H275.761V199.812ZM275.761 198.112H274.913V197.258H275.761V198.112ZM275.761 196.413H274.913V195.559H275.761V196.413ZM275.761 194.714H274.913V193.86H275.761V194.714ZM275.761 193.014H274.913V192.16H275.761V193.014ZM275.761 191.315H274.913V190.461H275.761V191.315ZM275.761 189.616H274.913V188.762H275.761V189.616ZM275.761 187.916H274.913V187.062H275.761V187.916ZM275.761 186.217H274.913V185.363H275.761V186.217ZM275.761 184.518H274.913V183.664H275.761V184.518ZM275.761 182.818H274.913V181.965H275.761V182.818ZM275.761 181.119H274.913V180.265H275.761V181.119ZM275.761 179.42H274.913V178.566H275.761V179.42ZM275.761 177.72H274.913V176.867H275.761V177.72ZM275.761 176.021H274.913V175.167H275.761V176.021ZM275.761 174.322H274.913V173.468H275.761V174.322ZM275.761 172.622H274.913V171.769H275.761V172.622ZM275.761 170.923H274.913V170.069H275.761V170.923ZM275.761 169.224H274.913V168.37H275.761V169.224ZM275.761 167.525H274.913V166.671H275.761V167.525ZM275.761 165.825H274.913V164.971H275.761V165.825ZM275.761 164.126H274.913V163.272H275.761V164.126ZM275.761 162.427H274.913V161.573H275.761V162.427ZM275.761 160.727H274.913V159.873H275.761V160.727ZM275.761 159.028H274.913V158.174H275.761V159.028ZM275.761 157.329H274.913V156.475H275.761V157.329ZM275.761 155.629H274.913V154.775H275.761V155.629ZM275.761 153.93H274.913V153.076H275.761V153.93ZM275.761 152.231H274.913V151.377H275.761V152.231ZM275.761 150.531H274.913V149.677H275.761V150.531ZM275.761 148.832H274.913V147.978H275.761V148.832ZM275.761 147.133H274.913V146.279H275.761V147.133ZM275.761 145.433H274.913V144.579H275.761V145.433ZM275.761 143.734H274.913V142.88H275.761V143.734ZM275.761 142.035H274.913V141.181H275.761V142.035ZM275.761 140.335H274.913V139.481H275.761V140.335ZM275.761 138.636H274.913V137.782H275.761V138.636ZM275.761 136.937H274.913V136.083H275.761V136.937ZM275.761 135.237H274.913V134.383H275.761V135.237ZM275.761 133.538H274.913V132.684H275.761V133.538ZM275.761 131.839H274.913V130.985H275.761V131.839ZM275.761 130.139H274.913V129.285H275.761V130.139ZM275.761 128.44H274.913V127.586H275.761V128.44ZM275.761 126.741H274.913V125.887H275.761V126.741ZM275.761 125.041H274.913V124.187H275.761V125.041ZM275.761 123.342H274.913V122.488H275.761V123.342ZM275.761 121.643H274.913V120.789H275.761V121.643ZM275.761 119.943H274.913V119.089H275.761V119.943ZM275.761 118.244H274.913V117.39H275.761V118.244ZM275.761 116.545H274.913V115.691H275.761V116.545ZM275.761 114.845H274.913V113.992H275.761V114.845ZM275.761 113.146H274.913V112.292H275.761V113.146ZM275.761 111.447H274.913V110.593H275.761V111.447ZM275.761 109.747H274.913V108.894H275.761V109.747ZM275.761 108.048H274.913V107.194H275.761V108.048ZM275.761 106.349H274.913V105.495H275.761V106.349ZM275.761 104.649H274.913V103.796H275.761V104.649ZM275.761 102.95H274.913V102.096H275.761V102.95ZM275.761 101.251H274.913V100.397H275.761V101.251ZM275.761 99.5515H274.913V98.6976H275.761V99.5515ZM275.761 97.8522H274.913V96.9982H275.761V97.8522ZM275.761 96.1528H274.913V95.2989H275.761V96.1528ZM275.761 94.4535H274.913V93.5996H275.761V94.4535ZM275.761 92.7542H274.913V91.9003H275.761V92.7542ZM275.761 91.0549H274.913V90.2009H275.761V91.0549ZM275.761 89.3555H274.913V88.5016H275.761V89.3555ZM275.761 87.6562H274.913V86.8023H275.761V87.6562ZM275.761 85.9569H274.913V85.103H275.761V85.9569ZM275.761 84.2576H274.913V83.4036H275.761V84.2576ZM275.761 82.5582H274.913V81.7043H275.761V82.5582ZM275.761 80.8589H274.913V80.005H275.761V80.8589ZM275.761 79.1596H274.913V78.3057H275.761V79.1596ZM275.761 77.4603H274.913V76.6063H275.761V77.4603ZM275.761 75.7609H274.913V74.907H275.761V75.7609ZM275.761 74.0616H274.913V73.2077H275.761V74.0616ZM275.761 72.3623H274.913V71.5084H275.761V72.3623ZM275.761 70.663H274.913V69.809H275.761V70.663ZM275.761 68.9636H274.913V68.1097H275.761V68.9636ZM275.761 67.2643H274.913V66.4104H275.761V67.2643ZM275.761 65.565H274.913V64.7111H275.761V65.565ZM275.761 63.8657H274.913V63.0117H275.761V63.8657ZM275.761 62.1663H274.913V61.3124H275.761V62.1663ZM275.761 60.467H274.913V59.6131H275.761V60.467ZM275.761 58.7677H274.913V57.9137H275.761V58.7677ZM275.761 57.0684H274.913V56.2144H275.761V57.0684ZM275.761 55.369H274.913V54.5151H275.761V55.369ZM275.761 53.6697H274.913V52.8158H275.761V53.6697ZM275.761 51.9704H274.913V51.1164H275.761V51.9704ZM275.761 50.271H274.913V49.4171H275.761V50.271ZM275.761 48.5717H274.913V47.7178H275.761V48.5717ZM275.761 46.8724H274.913V46.0185H275.761V46.8724ZM275.761 45.1731H274.913V44.3191H275.761V45.1731ZM275.761 43.4737H274.913V42.6198H275.761V43.4737ZM275.761 41.7744H274.913V40.9205H275.761V41.7744ZM275.761 40.0751H274.913V39.2212H275.761V40.0751ZM275.761 38.3758H274.913V37.5218H275.761V38.3758ZM275.761 36.6764H274.913V35.8225H275.761V36.6764ZM275.761 34.9771H274.913V34.1232H275.761V34.9771ZM275.761 33.2778H274.913V32.4239H275.761V33.2778ZM275.761 31.5785H274.913V30.7245H275.761V31.5785ZM275.761 29.8791H274.913V29.0252H275.761V29.8791ZM275.761 28.1798H274.913V27.3259H275.761V28.1798ZM275.761 26.4805H274.913V25.6266H275.761V26.4805ZM275.761 24.7812H274.913V23.9272H275.761V24.7812ZM275.761 23.0818H274.913V22.2279H275.761V23.0818ZM275.761 21.3825H274.913V20.5286H275.761V21.3825ZM275.761 19.6832H274.913V18.8293H275.761V19.6832ZM275.761 17.9839H274.913V17.1299H275.761V17.9839ZM275.761 16.2845H274.913V15.4306H275.761V16.2845ZM275.761 14.5852H274.913V13.7313H275.761V14.5852ZM275.761 12.8859H274.913V12.032H275.761V12.8859ZM275.761 11.1866H274.913V10.3326H275.761V11.1866ZM275.761 9.48723H274.913V8.6333H275.761V9.48723Z" fill="#151528"/>
<path d="M274.065 285.214H273.218V284.36H274.065V285.214ZM274.065 283.506H273.218V282.652H274.065V283.506ZM274.065 281.798H273.218V280.944H274.065V281.798ZM274.065 280.09H273.218V279.236H274.065V280.09ZM274.065 278.382H273.218V277.528H274.065V278.382ZM274.065 276.674H273.218V275.82H274.065V276.674ZM274.065 274.966H273.218V274.112H274.065V274.966ZM274.065 273.258H273.218V272.405H274.065V273.258ZM274.065 271.551H273.218V270.697H274.065V271.551ZM274.065 269.843H273.218V268.989H274.065V269.843ZM274.065 268.135H273.218V267.281H274.065V268.135ZM274.065 266.427H273.218V265.573H274.065V266.427ZM274.065 264.719H273.218V263.865H274.065V264.719ZM274.065 263.011H273.218V262.157H274.065V263.011ZM274.065 261.303H273.218V260.449H274.065V261.303ZM274.065 259.596H273.218V258.742H274.065V259.596ZM274.065 257.888H273.218V257.034H274.065V257.888ZM274.065 256.18H273.218V255.326H274.065V256.18ZM274.065 254.472H273.218V253.618H274.065V254.472ZM274.065 252.764H273.218V251.91H274.065V252.764ZM274.065 251.056H273.218V250.202H274.065V251.056ZM274.065 249.348H273.218V248.494H274.065V249.348ZM274.065 247.64H273.218V246.787H274.065V247.64ZM274.065 245.933H273.218V245.079H274.065V245.933ZM274.065 244.225H273.218V243.371H274.065V244.225ZM274.065 242.517H273.218V241.663H274.065V242.517ZM274.065 240.809H273.218V239.955H274.065V240.809ZM274.065 239.101H273.218V238.247H274.065V239.101ZM274.065 237.393H273.218V236.539H274.065V237.393ZM274.065 235.685H273.218V234.831H274.065V235.685ZM274.065 233.978H273.218V233.124H274.065V233.978ZM274.065 232.27H273.218V231.416H274.065V232.27ZM274.065 230.562H273.218V229.708H274.065V230.562ZM274.065 228.854H273.218V228H274.065V228.854ZM274.065 227.146H273.218V226.292H274.065V227.146ZM274.065 225.438H273.218V224.584H274.065V225.438ZM274.065 223.73H273.218V222.876H274.065V223.73ZM274.065 222.022H273.218V221.169H274.065V222.022ZM274.065 220.315H273.218V219.461H274.065V220.315ZM274.065 218.607H273.218V217.753H274.065V218.607ZM274.065 216.899H273.218V216.045H274.065V216.899ZM274.065 215.191H273.218V214.337H274.065V215.191ZM274.065 213.483H273.218V212.629H274.065V213.483ZM274.065 211.775H273.218V210.921H274.065V211.775ZM274.065 210.067H273.218V209.214H274.065V210.067ZM274.065 208.36H273.218V207.506H274.065V208.36ZM274.065 206.652H273.218V205.798H274.065V206.652ZM274.065 204.944H273.218V204.09H274.065V204.944ZM274.065 203.236H273.218V202.382H274.065V203.236ZM274.065 201.528H273.218V200.674H274.065V201.528ZM274.065 199.82H273.218V198.966H274.065V199.82ZM274.065 198.112H273.218V197.258H274.065V198.112ZM274.065 196.405H273.218V195.551H274.065V196.405ZM274.065 194.697H273.218V193.843H274.065V194.697ZM274.065 192.989H273.218V192.135H274.065V192.989ZM274.065 191.281H273.218V190.427H274.065V191.281ZM274.065 189.573H273.218V188.719H274.065V189.573ZM274.065 187.865H273.218V187.011H274.065V187.865ZM274.065 186.157H273.218V185.303H274.065V186.157ZM274.065 184.449H273.218V183.596H274.065V184.449ZM274.065 182.742H273.218V181.888H274.065V182.742ZM274.065 181.034H273.218V180.18H274.065V181.034ZM274.065 179.326H273.218V178.472H274.065V179.326ZM274.065 177.618H273.218V176.764H274.065V177.618ZM274.065 175.91H273.218V175.056H274.065V175.91ZM274.065 174.202H273.218V173.348H274.065V174.202ZM274.065 172.494H273.218V171.64H274.065V172.494ZM274.065 170.787H273.218V169.933H274.065V170.787ZM274.065 169.079H273.218V168.225H274.065V169.079ZM274.065 167.371H273.218V166.517H274.065V167.371ZM274.065 165.663H273.218V164.809H274.065V165.663ZM274.065 163.955H273.218V163.101H274.065V163.955ZM274.065 162.247H273.218V161.393H274.065V162.247ZM274.065 160.539H273.218V159.685H274.065V160.539ZM274.065 158.831H273.218V157.978H274.065V158.831ZM274.065 157.124H273.218V156.27H274.065V157.124ZM274.065 155.416H273.218V154.562H274.065V155.416ZM274.065 153.708H273.218V152.854H274.065V153.708ZM274.065 152H273.218V151.146H274.065V152ZM274.065 150.292H273.218V149.438H274.065V150.292ZM274.065 148.584H273.218V147.73H274.065V148.584ZM274.065 146.876H273.218V146.022H274.065V146.876ZM274.065 145.169H273.218V144.315H274.065V145.169ZM274.065 143.461H273.218V142.607H274.065V143.461ZM274.065 141.753H273.218V140.899H274.065V141.753ZM274.065 140.045H273.218V139.191H274.065V140.045ZM274.065 138.337H273.218V137.483H274.065V138.337ZM274.065 136.629H273.218V135.775H274.065V136.629ZM274.065 134.921H273.218V134.067H274.065V134.921ZM274.065 133.214H273.218V132.36H274.065V133.214ZM274.065 131.506H273.218V130.652H274.065V131.506ZM274.065 129.798H273.218V128.944H274.065V129.798ZM274.065 128.09H273.218V127.236H274.065V128.09ZM274.065 126.382H273.218V125.528H274.065V126.382ZM274.065 124.674H273.218V123.82H274.065V124.674ZM274.065 122.966H273.218V122.112H274.065V122.966ZM274.065 121.258H273.218V120.405H274.065V121.258ZM274.065 119.551H273.218V118.697H274.065V119.551ZM274.065 117.843H273.218V116.989H274.065V117.843ZM274.065 116.135H273.218V115.281H274.065V116.135ZM274.065 114.427H273.218V113.573H274.065V114.427ZM274.065 112.719H273.218V111.865H274.065V112.719ZM274.065 111.011H273.218V110.157H274.065V111.011ZM274.065 109.303H273.218V108.449H274.065V109.303ZM274.065 107.596H273.218V106.742H274.065V107.596ZM274.065 105.888H273.218V105.034H274.065V105.888ZM274.065 104.18H273.218V103.326H274.065V104.18ZM274.065 102.472H273.218V101.618H274.065V102.472ZM274.065 100.764H273.218V99.9101H274.065V100.764ZM274.065 99.0562H273.218V98.2023H274.065V99.0562ZM274.065 97.3483H273.218V96.4944H274.065V97.3483ZM274.065 95.6405H273.218V94.7865H274.065V95.6405ZM274.065 93.9326H273.218V93.0787H274.065V93.9326ZM274.065 92.2247H273.218V91.3708H274.065V92.2247ZM274.065 90.5169H273.218V89.6629H274.065V90.5169ZM274.065 88.809H273.218V87.9551H274.065V88.809ZM274.065 87.1011H273.218V86.2472H274.065V87.1011ZM274.065 85.3933H273.218V84.5393H274.065V85.3933ZM274.065 83.6854H273.218V82.8315H274.065V83.6854ZM274.065 81.9775H273.218V81.1236H274.065V81.9775ZM274.065 80.2697H273.218V79.4157H274.065V80.2697ZM274.065 78.5618H273.218V77.7079H274.065V78.5618ZM274.065 76.8539H273.218V76H274.065V76.8539ZM274.065 75.1461H273.218V74.2921H274.065V75.1461ZM274.065 73.4382H273.218V72.5843H274.065V73.4382ZM274.065 71.7304H273.218V70.8764H274.065V71.7304ZM274.065 70.0225H273.218V69.1686H274.065V70.0225ZM274.065 68.3146H273.218V67.4607H274.065V68.3146ZM274.065 66.6068H273.218V65.7528H274.065V66.6068ZM274.065 64.8989H273.218V64.045H274.065V64.8989ZM274.065 63.191H273.218V62.3371H274.065V63.191ZM274.065 61.4832H273.218V60.6292H274.065V61.4832ZM274.065 59.7753H273.218V58.9214H274.065V59.7753ZM274.065 58.0674H273.218V57.2135H274.065V58.0674ZM274.065 56.3596H273.218V55.5056H274.065V56.3596ZM274.065 54.6517H273.218V53.7978H274.065V54.6517ZM274.065 52.9438H273.218V52.0899H274.065V52.9438ZM274.065 51.236H273.218V50.382H274.065V51.236ZM274.065 49.5281H273.218V48.6742H274.065V49.5281ZM274.065 47.8202H273.218V46.9663H274.065V47.8202ZM274.065 46.1124H273.218V45.2584H274.065V46.1124ZM274.065 44.4045H273.218V43.5506H274.065V44.4045ZM274.065 42.6966H273.218V41.8427H274.065V42.6966ZM274.065 40.9888H273.218V40.1348H274.065V40.9888ZM274.065 39.2809H273.218V38.427H274.065V39.2809ZM274.065 37.573H273.218V36.7191H274.065V37.573ZM274.065 35.8652H273.218V35.0112H274.065V35.8652ZM274.065 34.1573H273.218V33.3034H274.065V34.1573ZM274.065 32.4494H273.218V31.5955H274.065V32.4494ZM274.065 30.7416H273.218V29.8877H274.065V30.7416ZM274.065 29.0337H273.218V28.1798H274.065V29.0337ZM274.065 27.3259H273.218V26.4719H274.065V27.3259ZM274.065 25.618H273.218V24.7641H274.065V25.618ZM274.065 23.9101H273.218V23.0562H274.065V23.9101ZM274.065 22.2023H273.218V21.3483H274.065V22.2023ZM274.065 20.4944H273.218V19.6405H274.065V20.4944ZM274.065 18.7865H273.218V17.9326H274.065V18.7865ZM274.065 17.0787H273.218V16.2247H274.065V17.0787ZM274.065 15.3708H273.218V14.5169H274.065V15.3708ZM274.065 13.6629H273.218V12.809H274.065V13.6629ZM274.065 11.9551H273.218V11.1011H274.065V11.9551ZM274.065 10.2472H273.218V9.39327H274.065V10.2472ZM274.065 8.53934H273.218V7.6854H274.065V8.53934ZM274.065 6.83147H273.218V5.97754H274.065V6.83147Z" fill="#151528"/>
<path d="M272.37 283.079H271.522V282.225H272.37V283.079ZM272.37 281.379H271.522V280.525H272.37V281.379ZM272.37 279.68H271.522V278.826H272.37V279.68ZM272.37 277.981H271.522V277.127H272.37V277.981ZM272.37 276.281H271.522V275.427H272.37V276.281ZM272.37 274.582H271.522V273.728H272.37V274.582ZM272.37 272.883H271.522V272.029H272.37V272.883ZM272.37 271.183H271.522V270.329H272.37V271.183ZM272.37 269.484H271.522V268.63H272.37V269.484ZM272.37 267.785H271.522V266.931H272.37V267.785ZM272.37 266.085H271.522V265.232H272.37V266.085ZM272.37 264.386H271.522V263.532H272.37V264.386ZM272.37 262.687H271.522V261.833H272.37V262.687ZM272.37 260.987H271.522V260.134H272.37V260.987ZM272.37 259.288H271.522V258.434H272.37V259.288ZM272.37 257.589H271.522V256.735H272.37V257.589ZM272.37 255.889H271.522V255.036H272.37V255.889ZM272.37 254.19H271.522V253.336H272.37V254.19ZM272.37 252.491H271.522V251.637H272.37V252.491ZM272.37 250.792H271.522V249.938H272.37V250.792ZM272.37 249.092H271.522V248.238H272.37V249.092ZM272.37 247.393H271.522V246.539H272.37V247.393ZM272.37 245.694H271.522V244.84H272.37V245.694ZM272.37 243.994H271.522V243.14H272.37V243.994ZM272.37 242.295H271.522V241.441H272.37V242.295ZM272.37 240.596H271.522V239.742H272.37V240.596ZM272.37 238.896H271.522V238.042H272.37V238.896ZM272.37 237.197H271.522V236.343H272.37V237.197ZM272.37 235.498H271.522V234.644H272.37V235.498ZM272.37 233.798H271.522V232.944H272.37V233.798ZM272.37 232.099H271.522V231.245H272.37V232.099ZM272.37 230.4H271.522V229.546H272.37V230.4ZM272.37 228.7H271.522V227.846H272.37V228.7ZM272.37 227.001H271.522V226.147H272.37V227.001ZM272.37 225.302H271.522V224.448H272.37V225.302ZM272.37 223.602H271.522V222.748H272.37V223.602ZM272.37 221.903H271.522V221.049H272.37V221.903ZM272.37 220.204H271.522V219.35H272.37V220.204ZM272.37 218.504H271.522V217.65H272.37V218.504ZM272.37 216.805H271.522V215.951H272.37V216.805ZM272.37 215.106H271.522V214.252H272.37V215.106ZM272.37 213.406H271.522V212.552H272.37V213.406ZM272.37 211.707H271.522V210.853H272.37V211.707ZM272.37 210.008H271.522V209.154H272.37V210.008ZM272.37 208.308H271.522V207.454H272.37V208.308ZM272.37 206.609H271.522V205.755H272.37V206.609ZM272.37 204.91H271.522V204.056H272.37V204.91ZM272.37 203.21H271.522V202.356H272.37V203.21ZM272.37 201.511H271.522V200.657H272.37V201.511ZM272.37 199.812H271.522V198.958H272.37V199.812ZM272.37 198.112H271.522V197.258H272.37V198.112ZM272.37 196.413H271.522V195.559H272.37V196.413ZM272.37 194.714H271.522V193.86H272.37V194.714ZM272.37 193.014H271.522V192.16H272.37V193.014ZM272.37 191.315H271.522V190.461H272.37V191.315ZM272.37 189.616H271.522V188.762H272.37V189.616ZM272.37 187.916H271.522V187.062H272.37V187.916ZM272.37 186.217H271.522V185.363H272.37V186.217ZM272.37 184.518H271.522V183.664H272.37V184.518ZM272.37 182.818H271.522V181.965H272.37V182.818ZM272.37 181.119H271.522V180.265H272.37V181.119ZM272.37 179.42H271.522V178.566H272.37V179.42ZM272.37 177.72H271.522V176.867H272.37V177.72ZM272.37 176.021H271.522V175.167H272.37V176.021ZM272.37 174.322H271.522V173.468H272.37V174.322ZM272.37 172.622H271.522V171.769H272.37V172.622ZM272.37 170.923H271.522V170.069H272.37V170.923ZM272.37 169.224H271.522V168.37H272.37V169.224ZM272.37 167.525H271.522V166.671H272.37V167.525ZM272.37 165.825H271.522V164.971H272.37V165.825ZM272.37 164.126H271.522V163.272H272.37V164.126ZM272.37 162.427H271.522V161.573H272.37V162.427ZM272.37 160.727H271.522V159.873H272.37V160.727ZM272.37 159.028H271.522V158.174H272.37V159.028ZM272.37 157.329H271.522V156.475H272.37V157.329ZM272.37 155.629H271.522V154.775H272.37V155.629ZM272.37 153.93H271.522V153.076H272.37V153.93ZM272.37 152.231H271.522V151.377H272.37V152.231ZM272.37 150.531H271.522V149.677H272.37V150.531ZM272.37 148.832H271.522V147.978H272.37V148.832ZM272.37 147.133H271.522V146.279H272.37V147.133ZM272.37 145.433H271.522V144.579H272.37V145.433ZM272.37 143.734H271.522V142.88H272.37V143.734ZM272.37 142.035H271.522V141.181H272.37V142.035ZM272.37 140.335H271.522V139.481H272.37V140.335ZM272.37 138.636H271.522V137.782H272.37V138.636ZM272.37 136.937H271.522V136.083H272.37V136.937ZM272.37 135.237H271.522V134.383H272.37V135.237ZM272.37 133.538H271.522V132.684H272.37V133.538ZM272.37 131.839H271.522V130.985H272.37V131.839ZM272.37 130.139H271.522V129.285H272.37V130.139ZM272.37 128.44H271.522V127.586H272.37V128.44ZM272.37 126.741H271.522V125.887H272.37V126.741ZM272.37 125.041H271.522V124.187H272.37V125.041ZM272.37 123.342H271.522V122.488H272.37V123.342ZM272.37 121.643H271.522V120.789H272.37V121.643ZM272.37 119.943H271.522V119.089H272.37V119.943ZM272.37 118.244H271.522V117.39H272.37V118.244ZM272.37 116.545H271.522V115.691H272.37V116.545ZM272.37 114.845H271.522V113.992H272.37V114.845ZM272.37 113.146H271.522V112.292H272.37V113.146ZM272.37 111.447H271.522V110.593H272.37V111.447ZM272.37 109.747H271.522V108.894H272.37V109.747ZM272.37 108.048H271.522V107.194H272.37V108.048ZM272.37 106.349H271.522V105.495H272.37V106.349ZM272.37 104.649H271.522V103.796H272.37V104.649ZM272.37 102.95H271.522V102.096H272.37V102.95ZM272.37 101.251H271.522V100.397H272.37V101.251ZM272.37 99.5515H271.522V98.6976H272.37V99.5515ZM272.37 97.8522H271.522V96.9982H272.37V97.8522ZM272.37 96.1528H271.522V95.2989H272.37V96.1528ZM272.37 94.4535H271.522V93.5996H272.37V94.4535ZM272.37 92.7542H271.522V91.9003H272.37V92.7542ZM272.37 91.0549H271.522V90.2009H272.37V91.0549ZM272.37 89.3555H271.522V88.5016H272.37V89.3555ZM272.37 87.6562H271.522V86.8023H272.37V87.6562ZM272.37 85.9569H271.522V85.103H272.37V85.9569ZM272.37 84.2576H271.522V83.4036H272.37V84.2576ZM272.37 82.5582H271.522V81.7043H272.37V82.5582ZM272.37 80.8589H271.522V80.005H272.37V80.8589ZM272.37 79.1596H271.522V78.3057H272.37V79.1596ZM272.37 77.4603H271.522V76.6063H272.37V77.4603ZM272.37 75.7609H271.522V74.907H272.37V75.7609ZM272.37 74.0616H271.522V73.2077H272.37V74.0616ZM272.37 72.3623H271.522V71.5084H272.37V72.3623ZM272.37 70.663H271.522V69.809H272.37V70.663ZM272.37 68.9636H271.522V68.1097H272.37V68.9636ZM272.37 67.2643H271.522V66.4104H272.37V67.2643ZM272.37 65.565H271.522V64.7111H272.37V65.565ZM272.37 63.8657H271.522V63.0117H272.37V63.8657ZM272.37 62.1663H271.522V61.3124H272.37V62.1663ZM272.37 60.467H271.522V59.6131H272.37V60.467ZM272.37 58.7677H271.522V57.9137H272.37V58.7677ZM272.37 57.0684H271.522V56.2144H272.37V57.0684ZM272.37 55.369H271.522V54.5151H272.37V55.369ZM272.37 53.6697H271.522V52.8158H272.37V53.6697ZM272.37 51.9704H271.522V51.1164H272.37V51.9704ZM272.37 50.271H271.522V49.4171H272.37V50.271ZM272.37 48.5717H271.522V47.7178H272.37V48.5717ZM272.37 46.8724H271.522V46.0185H272.37V46.8724ZM272.37 45.1731H271.522V44.3191H272.37V45.1731ZM272.37 43.4737H271.522V42.6198H272.37V43.4737ZM272.37 41.7744H271.522V40.9205H272.37V41.7744ZM272.37 40.0751H271.522V39.2212H272.37V40.0751ZM272.37 38.3758H271.522V37.5218H272.37V38.3758ZM272.37 36.6764H271.522V35.8225H272.37V36.6764ZM272.37 34.9771H271.522V34.1232H272.37V34.9771ZM272.37 33.2778H271.522V32.4239H272.37V33.2778ZM272.37 31.5785H271.522V30.7245H272.37V31.5785ZM272.37 29.8791H271.522V29.0252H272.37V29.8791ZM272.37 28.1798H271.522V27.3259H272.37V28.1798ZM272.37 26.4805H271.522V25.6266H272.37V26.4805ZM272.37 24.7812H271.522V23.9272H272.37V24.7812ZM272.37 23.0818H271.522V22.2279H272.37V23.0818ZM272.37 21.3825H271.522V20.5286H272.37V21.3825ZM272.37 19.6832H271.522V18.8293H272.37V19.6832ZM272.37 17.9839H271.522V17.1299H272.37V17.9839ZM272.37 16.2845H271.522V15.4306H272.37V16.2845ZM272.37 14.5852H271.522V13.7313H272.37V14.5852ZM272.37 12.8859H271.522V12.032H272.37V12.8859ZM272.37 11.1866H271.522V10.3326H272.37V11.1866ZM272.37 9.48723H271.522V8.6333H272.37V9.48723Z" fill="#151528"/>
<path d="M263.273 275.393H3.84903C2.91258 275.393 2.15344 276.158 2.15344 277.101V289.056C2.15344 289.999 2.91258 290.764 3.84903 290.764H263.273C264.21 290.764 264.969 289.999 264.969 289.056V277.101C264.969 276.158 264.21 275.393 263.273 275.393Z" fill="white" stroke="#151528" stroke-miterlimit="10"/>
<path d="M259.034 283.933C260.439 283.933 261.577 282.786 261.577 281.371C261.577 279.956 260.439 278.809 259.034 278.809C257.629 278.809 256.491 279.956 256.491 281.371C256.491 282.786 257.629 283.933 259.034 283.933Z" stroke="#151528" stroke-miterlimit="10"/>
<path d="M259.034 282.908C259.877 282.908 260.56 282.22 260.56 281.371C260.56 280.522 259.877 279.834 259.034 279.834C258.191 279.834 257.508 280.522 257.508 281.371C257.508 282.22 258.191 282.908 259.034 282.908Z" fill="#151528"/>
<path d="M8.08793 283.933C9.4926 283.933 10.6313 282.786 10.6313 281.371C10.6313 279.956 9.4926 278.809 8.08793 278.809C6.68326 278.809 5.54456 279.956 5.54456 281.371C5.54456 282.786 6.68326 283.933 8.08793 283.933Z" stroke="#151528" stroke-miterlimit="10"/>
<path d="M8.08791 282.908C8.93071 282.908 9.61394 282.22 9.61394 281.371C9.61394 280.522 8.93071 279.834 8.08791 279.834C7.24511 279.834 6.56189 280.522 6.56189 281.371C6.56189 282.22 7.24511 282.908 8.08791 282.908Z" fill="#151528"/>
<path d="M204.97 15.7979H255.838V33.2181H208.701C206.641 33.2181 204.97 31.5358 204.97 29.4608V15.7979Z" stroke="#151528" stroke-miterlimit="10"/>
<path d="M204.97 217.454H255.838V221.211H208.701C206.641 221.211 204.97 219.529 204.97 217.454Z" stroke="#151528" stroke-miterlimit="10"/>
<path d="M76.8353 5.55054H63.2707C61.866 5.55054 60.7273 6.69749 60.7273 8.11233C60.7273 9.52718 61.866 10.6741 63.2707 10.6741H76.8353C78.24 10.6741 79.3787 9.52718 79.3787 8.11233C79.3787 6.69749 78.24 5.55054 76.8353 5.55054Z" stroke="#151528" stroke-miterlimit="10"/>
<path d="M203.165 5.55054H189.6C188.195 5.55054 187.057 6.69749 187.057 8.11233C187.057 9.52718 188.195 10.6741 189.6 10.6741H203.165C204.569 10.6741 205.708 9.52718 205.708 8.11233C205.708 6.69749 204.569 5.55054 203.165 5.55054Z" stroke="#151528" stroke-miterlimit="10"/>
<path d="M242.536 9.64935C243.379 9.64935 244.062 8.96118 244.062 8.11227C244.062 7.26337 243.379 6.5752 242.536 6.5752C241.693 6.5752 241.01 7.26337 241.01 8.11227C241.01 8.96118 241.693 9.64935 242.536 9.64935Z" fill="#151528"/>
<path d="M259.034 12.3821C260.439 12.3821 261.577 11.2352 261.577 9.82034C261.577 8.4055 260.439 7.25854 259.034 7.25854C257.629 7.25854 256.491 8.4055 256.491 9.82034C256.491 11.2352 257.629 12.3821 259.034 12.3821Z" stroke="#151528" stroke-miterlimit="10"/>
<path d="M259.034 11.3574C259.877 11.3574 260.56 10.6692 260.56 9.82028C260.56 8.97138 259.877 8.2832 259.034 8.2832C258.191 8.2832 257.508 8.97138 257.508 9.82028C257.508 10.6692 258.191 11.3574 259.034 11.3574Z" fill="#151528"/>
<path d="M8.08793 12.3821C9.4926 12.3821 10.6313 11.2352 10.6313 9.82034C10.6313 8.4055 9.4926 7.25854 8.08793 7.25854C6.68326 7.25854 5.54456 8.4055 5.54456 9.82034C5.54456 11.2352 6.68326 12.3821 8.08793 12.3821Z" stroke="#151528" stroke-miterlimit="10"/>
<path d="M8.08791 11.3574C8.93071 11.3574 9.61394 10.6692 9.61394 9.82028C9.61394 8.97138 8.93071 8.2832 8.08791 8.2832C7.24511 8.2832 6.56189 8.97138 6.56189 9.82028C6.56189 10.6692 7.24511 11.3574 8.08791 11.3574Z" fill="#151528"/>
</g>
<defs>
<clipPath id="clip0_259_1275">
<rect width="280" height="304" fill="white"/>
</clipPath>
</defs>
</svg>
