<svg width="176" height="32" viewBox="0 0 176 32" fill="none" xmlns="http://www.w3.org/2000/svg">
<path fill-rule="evenodd" clip-rule="evenodd" d="M6.67715 31.4266V9.99752H0.498061V31.4266H6.67715ZM0.000339644 3.53682C-0.00178788 4.2388 0.206161 4.92562 0.597858 5.51032C0.989555 6.09502 1.54738 6.5513 2.20072 6.8214C2.85405 7.0915 3.57351 7.16327 4.26799 7.02761C4.96248 6.89196 5.60075 6.55498 6.10201 6.05936C6.60327 5.56373 6.94498 4.93174 7.08385 4.2434C7.22272 3.55506 7.15253 2.84133 6.88215 2.19259C6.61177 1.54384 6.15336 0.989244 5.56497 0.599023C4.97659 0.208801 4.28469 0.000501743 3.57686 0.000498572C3.1059 -0.00739882 2.63813 0.0785964 2.20132 0.253382C1.7645 0.428168 1.36754 0.688184 1.03397 1.018C0.7004 1.34782 0.437024 1.74073 0.259469 2.17341C0.0819134 2.60609 -0.00620576 3.06973 0.000339644 3.53682ZM14.9493 31.4266V18.9316C15.5706 17.7896 16.4954 16.8381 17.6233 16.1803C18.7513 15.5225 20.0393 15.1835 21.3476 15.2002C21.9968 15.1948 22.6442 15.2664 23.2762 15.4134V9.48898C23.0451 9.44714 22.81 9.43105 22.5753 9.441C20.9706 9.44154 19.3959 9.87176 18.0173 10.6862C16.7567 11.3794 15.6994 12.3857 14.9493 13.6063V9.99965H8.76909V31.4287H14.9482L14.9493 31.4266ZM31.5838 24.9851C31.0219 24.4203 30.5809 23.7489 30.2872 23.0109C29.9934 22.273 29.8531 21.4838 29.8745 20.6907C29.8745 19.1 30.5117 17.5743 31.6459 16.4495C32.7801 15.3246 34.3185 14.6927 35.9225 14.6927C37.5265 14.6927 39.0648 15.3246 40.199 16.4495C41.3332 17.5743 41.9704 19.1 41.9704 20.6907C41.9919 21.4838 41.8515 22.273 41.5578 23.0109C41.2641 23.7489 40.823 24.4203 40.2612 24.9851C39.0904 26.0883 37.5371 26.7035 35.9221 26.7037C34.3072 26.7039 32.7538 26.089 31.5827 24.9861L31.5838 24.9851ZM23.7836 20.6907C23.7502 22.1986 24.0369 23.6967 24.6251 25.0876C25.2133 26.4785 26.0898 27.7312 27.1978 28.7645C29.62 30.8423 32.7156 31.9858 35.9182 31.9858C39.1208 31.9858 42.2163 30.8423 44.6385 28.7645C45.7205 27.7204 46.5805 26.4719 47.1677 25.0927C47.755 23.7135 48.0575 22.2316 48.0575 20.7344C48.0575 19.2373 47.755 17.7554 47.1677 16.3762C46.5805 14.9969 45.7205 13.7484 44.6385 12.7044C42.2286 10.6011 39.1284 9.44088 35.9182 9.44088C32.7079 9.44088 29.6077 10.6011 27.1978 12.7044C26.0912 13.7204 25.2146 14.9578 24.6259 16.3346C24.0372 17.7115 23.7497 19.1966 23.7825 20.6918L23.7836 20.6907ZM55.7637 17.7706C56.3081 16.9504 57.0407 16.2697 57.9016 15.7846C58.7625 15.2994 59.727 15.0235 60.7162 14.9795C62.9941 14.9795 64.8786 16.2247 64.8786 19.5318V31.4266H71.0577V18.2866C71.0577 12.7908 68.166 9.43781 63.0823 9.43781C61.7065 9.40516 60.34 9.66843 59.0766 10.2095C57.8132 10.7506 56.683 11.5566 55.7637 12.5722V9.99965H49.5846V31.4287H55.7637V17.7717V17.7706ZM86.5968 31.9841C87.9869 32.0193 89.3676 31.7488 90.6398 31.1921C91.912 30.6355 93.0442 29.8064 93.9551 28.7645C95.9371 26.544 96.9875 23.6557 96.891 20.6918C96.9874 17.7538 95.9355 14.8925 93.9551 12.7055C93.0527 11.6497 91.9227 10.8083 90.6486 10.2435C89.3745 9.67864 87.9887 9.40477 86.5936 9.44207C85.2279 9.37331 83.8651 9.62532 82.6161 10.1776C81.3672 10.7298 80.2673 11.5667 79.4061 12.6202V0.466394H73.227V31.4266H79.4061V28.8071C80.2585 29.8713 81.3573 30.7158 82.6092 31.2689C83.861 31.822 85.2289 32.0674 86.5968 31.9841ZM84.8435 26.7026C83.7293 26.7 82.6365 26.3995 81.6802 25.8327C80.7238 25.2659 79.9393 24.4537 79.4094 23.4818V17.9007C79.9421 16.9344 80.7284 16.1289 81.685 15.5696C82.6417 15.0103 83.733 14.718 84.8435 14.7236C85.6342 14.6953 86.4219 14.8337 87.1547 15.1298C87.8874 15.4259 88.5484 15.8729 89.094 16.4412C90.1656 17.6103 90.7594 19.1336 90.7594 20.7136C90.7594 22.2937 90.1656 23.8169 89.094 24.9861C88.5484 25.5544 87.8874 26.0014 87.1547 26.2975C86.4219 26.5936 85.6342 26.732 84.8435 26.7036V26.7026ZM105.873 24.9851C105.311 24.4203 104.87 23.7489 104.576 23.0109C104.282 22.273 104.142 21.4838 104.163 20.6907C104.153 19.8964 104.301 19.1079 104.6 18.3709C104.899 17.634 105.343 16.9634 105.906 16.3979C106.468 15.8324 107.139 15.3835 107.878 15.077C108.617 14.7706 109.41 14.6128 110.211 14.6128C111.012 14.6128 111.805 14.7706 112.544 15.077C113.283 15.3835 113.953 15.8324 114.516 16.3979C115.078 16.9634 115.522 17.634 115.821 18.3709C116.12 19.1079 116.269 19.8964 116.258 20.6907C116.28 21.4838 116.139 22.273 115.846 23.0109C115.552 23.7489 115.111 24.4203 114.549 24.9851C113.378 26.0879 111.825 26.7029 110.211 26.7031C108.596 26.7033 107.043 26.0887 105.873 24.9861V24.9851ZM98.0713 20.6907C98.0386 22.1988 98.3261 23.6968 98.915 25.0876C99.504 26.4783 100.381 27.7307 101.49 28.7634C103.912 30.8415 107.008 31.9852 110.211 31.9852C113.414 31.9852 116.509 30.8415 118.932 28.7634C120.014 27.7194 120.874 26.4708 121.461 25.0916C122.048 23.7124 122.351 22.2305 122.351 20.7334C122.351 19.2362 122.048 17.7543 121.461 16.3751C120.874 14.9959 120.014 13.7474 118.932 12.7033C116.522 10.6 113.421 9.43969 110.211 9.43969C107 9.43969 103.9 10.6 101.49 12.7033C100.382 13.7192 99.5051 14.9565 98.9158 16.3336C98.3266 17.7107 98.0387 19.1962 98.0713 20.6918V20.6907ZM131.214 24.9851C130.652 24.4203 130.211 23.7489 129.917 23.0109C129.623 22.273 129.483 21.4838 129.504 20.6907C129.494 19.8964 129.642 19.1079 129.941 18.3709C130.24 17.634 130.684 16.9634 131.247 16.3979C131.809 15.8324 132.48 15.3835 133.219 15.077C133.958 14.7706 134.751 14.6128 135.552 14.6128C136.353 14.6128 137.146 14.7706 137.885 15.077C138.624 15.3835 139.294 15.8324 139.857 16.3979C140.419 16.9634 140.863 17.634 141.162 18.3709C141.461 19.1079 141.61 19.8964 141.599 20.6907C141.621 21.4838 141.48 22.273 141.186 23.0109C140.893 23.7489 140.452 24.4203 139.89 24.9851C138.719 26.0879 137.166 26.7029 135.552 26.7031C133.937 26.7033 132.384 26.0887 131.214 24.9861V24.9851ZM123.41 20.6918C123.377 22.1999 123.665 23.6979 124.254 25.0886C124.843 26.4794 125.72 27.7317 126.829 28.7645C129.251 30.8426 132.347 31.9863 135.549 31.9863C138.752 31.9863 141.848 30.8426 144.27 28.7645C145.352 27.7204 146.212 26.4719 146.8 25.0927C147.387 23.7135 147.689 22.2316 147.689 20.7344C147.689 19.2373 147.387 17.7554 146.8 16.3762C146.212 14.9969 145.352 13.7484 144.27 12.7044C141.86 10.601 138.76 9.44076 135.549 9.44076C132.339 9.44076 129.239 10.601 126.829 12.7044C125.721 13.7201 124.844 14.9573 124.255 16.3342C123.666 17.7111 123.378 19.1963 123.41 20.6918ZM155.391 31.4266V22.194L164.024 31.4266H172L161.003 19.6608L170.512 9.99965H162.93L155.393 17.8154V0.461062H149.21V31.4266H155.389H155.391Z" fill="#6996C7"/>
</svg>
